<svg width="29" height="29" viewBox="0 0 29 29" fill="none" xmlns="http://www.w3.org/2000/svg">
<path fill-rule="evenodd" clip-rule="evenodd" d="M5.13342 14.5333C5.13342 13.889 5.65576 13.3667 6.30009 13.3667H22.6334C23.2778 13.3667 23.8001 13.889 23.8001 14.5333C23.8001 15.1777 23.2778 15.7 22.6334 15.7H6.30009C5.65576 15.7 5.13342 15.1777 5.13342 14.5333Z" fill="white"/>
<path fill-rule="evenodd" clip-rule="evenodd" d="M15.2917 5.54169C15.7473 5.9973 15.7473 6.73599 15.2917 7.19161L7.95001 14.5333L15.2917 21.875C15.7473 22.3306 15.7473 23.0693 15.2917 23.5249C14.8361 23.9805 14.0974 23.9805 13.6418 23.5249L5.47513 15.3583C5.01952 14.9027 5.01952 14.164 5.47513 13.7084L13.6418 5.54169C14.0974 5.08608 14.8361 5.08608 15.2917 5.54169Z" fill="white"/>
</svg>
