<svg width="28" height="28" viewBox="1 1 42 44" fill="none" xmlns="http://www.w3.org/2000/svg">
<path fill-rule="evenodd" clip-rule="evenodd" d="M20.8808 2.3319C21.539 1.81991 22.4608 1.81991 23.1191 2.3319L39.5253 15.0923C39.9694 15.4377 40.2291 15.9687 40.2291 16.5312V36.5833C40.2291 38.0337 39.6529 39.4247 38.6273 40.4503C37.6017 41.4759 36.2107 42.0521 34.7603 42.0521H9.2395C7.7891 42.0521 6.3981 41.4759 5.37251 40.4503C4.34692 39.4247 3.77075 38.0337 3.77075 36.5833V16.5312C3.77075 15.9687 4.03047 15.4377 4.47451 15.0923L20.8808 2.3319ZM7.41659 17.4228V36.5833C7.41659 37.0668 7.60864 37.5305 7.95051 37.8723C8.29237 38.2142 8.75604 38.4062 9.2395 38.4062H34.7603C35.2438 38.4062 35.7075 38.2142 36.0493 37.8723C36.3912 37.5305 36.5833 37.0668 36.5833 36.5833V17.4228L21.9999 6.08021L7.41659 17.4228Z" fill="white"/>
<path fill-rule="evenodd" clip-rule="evenodd" d="M14.7083 22C14.7083 20.9932 15.5244 20.1771 16.5312 20.1771H27.4687C28.4754 20.1771 29.2916 20.9932 29.2916 22V40.2292C29.2916 41.2359 28.4754 42.0521 27.4687 42.0521C26.4619 42.0521 25.6458 41.2359 25.6458 40.2292V23.8229H18.3541V40.2292C18.3541 41.2359 17.5379 42.0521 16.5312 42.0521C15.5244 42.0521 14.7083 41.2359 14.7083 40.2292V22Z" fill="white"/>
</svg>
