<?xml version="1.0" encoding="utf-8"?>
<!-- Generator: Adobe Illustrator 26.5.0, SVG Export Plug-In . SVG Version: 6.00 Build 0)  -->
<svg version="1.1" id="Camada_1" xmlns="http://www.w3.org/2000/svg" xmlns:xlink="http://www.w3.org/1999/xlink" x="0px" y="0px"
	 viewBox="0 0 1920 1080" style="enable-background:new 0 0 1920 1080;" xml:space="preserve">
<style type="text/css">
	.st0{fill:url(#SVGID_1_);}
	.st1{fill:#1E70F7;}
	.st2{fill:#8935BB;}
	.st3{fill:url(#SVGID_00000014607206143381122430000015195236374317344926_);}
</style>
<linearGradient id="SVGID_1_" gradientUnits="userSpaceOnUse" x1="-779.0047" y1="1017.6373" x2="780.401" y2="1017.6373">
	<stop  offset="0" style="stop-color:#1E70F7"/>
	<stop  offset="1" style="stop-color:#8935BB"/>
</linearGradient>
<path class="st0" d="M-529.95,743.56c62.2,91.23,110.58,195.05,174.83,284.26c150.53,209.04,388.64,324.34,619.29,299.9
	c96.57-10.23,191.81-43.32,288.65-37.77c96.84,5.55,197.65,64.51,227.58,174.05H-765.75c-0.78,4.67-1.01,9.49-1.79,14.16
	c-5.54-15.24-9-31.71-9.46-48.3c0-40.75,0-81.51,0-122.26c0-91.44,0-182.88,0-274.32c0-95.94,0-191.88,0-287.82
	c0-35.22,0-70.45,0-105.67c0-15.46-4.51-42.38,0-57.09c0.43-1.4-0.11-4.2-0.18-5.34c15.39,0.86,9.48-6.76,16.49-15.83
	c7.19-9.3,18.89-1.56,28.67,2.08c27.3,10.15,53.21,25.14,77.34,43.31C-606.67,643.06-565.6,691.28-529.95,743.56z"/>
<rect x="-291" y="89" class="st1" width="85" height="63"/>
<rect x="-291" y="187" class="st2" width="85" height="63"/>
<linearGradient id="SVGID_00000027569287909983122620000007943779524228571065_" gradientUnits="userSpaceOnUse" x1="0" y1="670.8312" x2="1486.5222" y2="670.8312">
	<stop  offset="0" style="stop-color:#1E70F7"/>
	<stop  offset="1" style="stop-color:#8935BB"/>
</linearGradient>
<path style="fill:url(#SVGID_00000027569287909983122620000007943779524228571065_);" d="M0,1080h1486.52
	c-159.69-125.93-367.97-188.65-570.18-164.92c-121.61,14.27-238.74,57.08-360.68,68.27c-121.94,11.19-258.61-17.19-331.95-115.25
	c-48.01-64.19-61.16-147.51-66.88-227.46s-5.8-161.9-32.95-237.31c-1.13,0-23.26-49.24-26.34-54.15
	c-10.09-16.06-21.83-31.16-35.25-44.58C44.43,286.73,23.42,271.41,0,261.66V1080z"/>
</svg>
