<svg width="125" height="44" viewBox="0 0 125 44" fill="none" xmlns="http://www.w3.org/2000/svg">
<path d="M46.41 13.2205C46.8062 12.668 47.3412 12.2505 48.015 11.9667C48.6875 11.683 49.4637 11.5417 50.3425 11.5417V14.603C49.9737 14.5742 49.725 14.5592 49.5975 14.5592C48.6487 14.5592 47.9037 14.8255 47.3662 15.3567C46.8275 15.8892 46.5575 16.6855 46.5575 17.7492V23.148H43.2412V11.7117H46.41V13.2205ZM62.2437 17.473C62.2437 17.5155 62.2225 17.813 62.18 18.3655H53.5275C53.6837 19.0742 54.0525 19.633 54.6337 20.0442C55.2137 20.4555 55.9362 20.6605 56.8012 20.6605C57.3962 20.6605 57.925 20.573 58.385 20.3955C58.8462 20.218 59.275 19.938 59.6712 19.5555L61.435 21.4692C60.3587 22.7017 58.7862 23.318 56.7162 23.318C55.4262 23.318 54.2862 23.0667 53.2937 22.563C52.3012 22.0605 51.5362 21.363 50.9975 20.4692C50.4587 19.5767 50.19 18.5642 50.19 17.4305C50.19 16.3105 50.4562 15.3005 50.9875 14.4005C51.5187 13.5005 52.2487 12.7992 53.1762 12.2955C54.105 11.793 55.1437 11.5417 56.2912 11.5417C57.4112 11.5417 58.4237 11.7817 59.3312 12.2642C60.2375 12.7467 60.95 13.4367 61.4675 14.3367C61.985 15.2367 62.2437 16.2817 62.2437 17.473ZM56.3125 14.0492C55.5612 14.0492 54.93 14.2617 54.4212 14.688C53.91 15.113 53.5987 15.6942 53.485 16.4305H59.1187C59.005 15.708 58.6937 15.1305 58.1837 14.698C57.6725 14.2655 57.05 14.0492 56.3125 14.0492ZM74.9312 7.37547V23.148H71.7637V21.8305C70.9425 22.823 69.7512 23.318 68.1925 23.318C67.1162 23.318 66.1412 23.078 65.27 22.5955C64.3987 22.1142 63.7137 21.4267 63.2187 20.533C62.7225 19.6405 62.475 18.6067 62.475 17.4305C62.475 16.253 62.7225 15.2192 63.2187 14.3255C63.7137 13.433 64.3987 12.7467 65.27 12.2642C66.1412 11.7817 67.1162 11.5417 68.1925 11.5417C69.6525 11.5417 70.7937 12.0017 71.615 12.923V9.76297L74.9312 7.37547ZM68.7662 20.5967C69.6025 20.5967 70.2975 20.3105 70.85 19.7367C71.4025 19.163 71.6787 18.3942 71.6787 17.4305C71.6787 16.4667 71.4025 15.698 70.85 15.123C70.2975 14.5492 69.6025 14.2617 68.7662 14.2617C67.9162 14.2617 67.215 14.5492 66.6625 15.123C66.11 15.698 65.8325 16.4667 65.8325 17.4305C65.8325 18.3942 66.11 19.163 66.6625 19.7367C67.215 20.3105 67.9162 20.5967 68.7662 20.5967ZM81.4337 11.5417C83.205 11.5417 84.565 11.963 85.515 12.8067C86.465 13.6492 86.9387 14.9217 86.9387 16.6217V23.148H83.835V21.7242C83.2125 22.7867 82.05 23.318 80.35 23.318C79.4712 23.318 78.7087 23.1692 78.0637 22.8717C77.4187 22.5742 76.9262 22.163 76.5862 21.6392C76.2462 21.1142 76.0762 20.5192 76.0762 19.853C76.0762 18.7905 76.4762 17.9542 77.2775 17.3455C78.0787 16.7355 79.315 16.4305 80.9875 16.4305H83.6225C83.6225 15.708 83.4037 15.1517 82.9637 14.7617C82.525 14.3717 81.865 14.1767 80.9875 14.1767C80.3775 14.1767 79.7787 14.273 79.1912 14.4642C78.6025 14.6555 78.1025 14.9142 77.6925 15.2405L76.5012 12.923C77.125 12.4842 77.8725 12.1442 78.745 11.903C79.6162 11.6617 80.5125 11.5417 81.4337 11.5417ZM81.1787 21.0867C81.745 21.0867 82.2487 20.9555 82.6875 20.693C83.1275 20.4305 83.4387 20.0442 83.6225 19.5342V18.3655H81.3487C79.9875 18.3655 79.3075 18.8117 79.3075 19.7042C79.3075 20.1292 79.4737 20.4667 79.8075 20.7142C80.14 20.963 80.5975 21.0867 81.1787 21.0867ZM96.1412 22.5955C95.815 22.8367 95.415 23.0167 94.94 23.138C94.465 23.258 93.9662 23.318 93.4412 23.318C92.08 23.318 91.0287 22.9717 90.285 22.2767C89.54 21.5817 89.1687 20.5617 89.1687 19.2155V14.5167H87.4037V11.9667H89.1687V9.81797L92.485 7.37422V11.9667H95.3337V14.5167H92.485V19.173C92.485 19.6542 92.6087 20.0267 92.8562 20.2892C93.105 20.5517 93.455 20.6817 93.9087 20.6817C94.4337 20.6817 94.88 20.5405 95.2487 20.2567L96.1412 22.5955ZM96.84 11.7117H100.155V23.148H96.84V11.7117ZM98.4975 10.1167C97.8887 10.1167 97.3925 9.93922 97.01 9.58547C96.6275 9.23172 96.435 8.79172 96.435 8.26797C96.435 7.74297 96.6275 7.30422 97.01 6.94922C97.3925 6.59547 97.8887 6.41797 98.4975 6.41797C99.1062 6.41797 99.6025 6.58797 99.985 6.92797C100.369 7.26922 100.56 7.69422 100.56 8.20422C100.56 8.75672 100.369 9.21422 99.985 9.57547C99.6025 9.93672 99.1062 10.1167 98.4975 10.1167ZM113.417 11.7117L108.592 23.148H105.17L100.365 11.7117H103.787L106.955 19.4917L110.229 11.7117H113.417ZM118.729 23.318C117.525 23.318 116.444 23.0667 115.487 22.563C114.531 22.0605 113.784 21.363 113.245 20.4692C112.706 19.5767 112.436 18.5642 112.436 17.4305C112.436 16.2955 112.706 15.283 113.245 14.3892C113.784 13.4967 114.531 12.7992 115.487 12.2955C116.444 11.793 117.525 11.5417 118.729 11.5417C119.934 11.5417 121.011 11.793 121.96 12.2955C122.91 12.7992 123.654 13.4967 124.192 14.3892C124.731 15.283 125 16.2955 125 17.4305C125 18.5642 124.731 19.5767 124.192 20.4692C123.654 21.363 122.91 22.0605 121.96 22.563C121.011 23.0667 119.934 23.318 118.729 23.318ZM118.729 20.5967C119.58 20.5967 120.277 20.3105 120.824 19.7367C121.369 19.163 121.641 18.3942 121.641 17.4305C121.641 16.4667 121.369 15.698 120.824 15.123C120.277 14.5492 119.58 14.2617 118.729 14.2617C117.879 14.2617 117.177 14.5492 116.625 15.123C116.071 15.698 115.796 16.4667 115.796 17.4305C115.796 18.3942 116.071 19.163 116.625 19.7367C117.177 20.3105 117.879 20.5967 118.729 20.5967Z" fill="#1E70F7"/>
<path fill-rule="evenodd" clip-rule="evenodd" d="M21.3424 42.9518C23.0311 43.3393 24.9799 42.153 24.4011 40.678L22.4486 35.7043L8.01987 32.198L23.4549 33.4143H26.0749V33.4168C31.0549 33.2605 33.9624 28.5368 33.9624 23.948V9.51803C33.9624 6.30053 33.0261 3.91053 31.1549 2.34929C28.8374 0.414286 25.4699 0.00553535 22.5474 0.00553535H4.88237C4.88237 0.00553535 3.99362 -0.0269645 3.53862 0.0655355C1.57987 0.465535 0.106122 2.19804 0.106122 4.27428C0.106122 23.8318 -1.48138 29.7805 7.62362 35.948C10.0049 37.5618 18.6686 42.338 21.3424 42.9518ZM14.5149 7.15678H19.4474C19.6749 7.15678 19.8611 7.34303 19.8611 7.57053C19.8611 7.79928 19.6749 7.98553 19.4474 7.98553H14.5149C14.2874 7.98553 14.0999 7.79928 14.0999 7.57053C14.0999 7.34303 14.2874 7.15678 14.5149 7.15678ZM13.9386 9.34303H20.0236C20.2511 9.34303 20.4374 9.52928 20.4374 9.75803C20.4374 9.98678 20.2511 10.1718 20.0236 10.1718H13.9386C13.7111 10.1718 13.5236 9.98678 13.5236 9.75803C13.5236 9.52928 13.7111 9.34303 13.9386 9.34303ZM13.1711 11.5305H20.7911C21.0199 11.5305 21.2061 11.7168 21.2061 11.9443C21.2061 12.173 21.0199 12.3593 20.7911 12.3593H13.1711C12.9424 12.3593 12.7561 12.173 12.7561 11.9443C12.7561 11.7168 12.9424 11.5305 13.1711 11.5305ZM21.4224 4.96803H12.5361C11.6449 9.81678 10.5574 14.633 9.83862 19.5093C9.78612 19.8655 9.65862 20.2505 9.93487 20.5468C12.1099 22.8755 14.3249 25.168 16.5199 27.478V19.5293C16.0849 19.3493 15.7799 18.9205 15.7799 18.4193C15.7799 17.7568 16.3161 17.2193 16.9799 17.2193C17.6424 17.2193 18.1799 17.7568 18.1799 18.4193C18.1799 18.9205 17.8749 19.3493 17.4386 19.5293V27.4793C19.6336 25.193 21.8286 22.8305 24.0224 20.5468C24.3249 20.2855 24.1586 19.838 24.0986 19.5118L21.4224 4.96803Z" fill="#1E70F7"/>
</svg>
