<svg width="1370" height="336" viewBox="0 0 1370 336" fill="none" xmlns="http://www.w3.org/2000/svg">
<path fill-rule="evenodd" clip-rule="evenodd" d="M1101.75 82.8635C1098.16 80.2269 1093.82 78.8052 1089.37 78.8052C1084.91 78.8052 1080.57 80.2269 1076.98 82.8635C1075.26 84.3674 1073.91 86.2451 1073.02 88.3529C1072.14 90.4608 1071.75 92.7429 1071.88 95.0246C1071.78 97.3152 1072.19 99.5996 1073.1 101.706C1074.01 103.812 1075.38 105.686 1077.11 107.186C1080.7 109.816 1085.03 111.235 1089.48 111.235C1093.93 111.235 1098.27 109.816 1101.85 107.186C1103.61 105.701 1104.99 103.83 1105.9 101.72C1106.81 99.61 1107.21 97.3181 1107.08 95.0246C1107.21 92.7211 1106.79 90.4198 1105.87 88.3071C1104.94 86.1944 1103.53 84.3296 1101.75 82.8635ZM784.853 124.996C789.534 124.996 793.431 125.1 796.569 125.257V84.0402H824.841V250.792H799.106L798.452 240.854C793.139 245.449 786.893 248.839 780.145 250.792C776.243 252.011 772.177 252.628 768.089 252.623C764.161 252.628 760.243 252.225 756.398 251.419C752.378 250.544 748.478 249.183 744.786 247.366C740.829 245.33 737.147 242.799 733.828 239.834C730.161 236.467 727.006 232.581 724.465 228.3C718.516 217.681 715.527 205.659 715.809 193.491C715.809 180.257 717.953 169.325 722.19 161.035C726.214 152.999 731.955 145.945 739.006 140.374C745.955 135.038 753.854 131.071 762.283 128.683C769.602 126.427 777.196 125.186 784.853 124.996ZM796.438 216.296V148.795V148.69C792.35 148.222 788.236 148.012 784.12 148.063C779.116 148.172 774.158 149.054 769.422 150.678C764.526 152.125 760.044 154.716 756.346 158.236C752.56 161.937 749.686 166.468 747.951 171.47C745.847 177.96 744.857 184.76 745.022 191.581C744.826 198.165 745.782 204.732 747.846 210.987C749.288 215.25 751.624 219.156 754.698 222.442C756.897 224.785 759.562 226.642 762.521 227.894C765.48 229.146 768.668 229.766 771.881 229.712C776.004 229.825 780.1 229.015 783.869 227.341C787.638 225.666 790.986 223.171 793.666 220.036C794.72 218.891 795.649 217.637 796.438 216.296ZM566.135 223.593C562.7 223.182 559.378 222.107 556.354 220.428C544.794 214.805 536.425 204.606 531.011 190.117C542.165 187.938 552.411 182.474 560.434 174.425C564.674 169.987 567.958 164.727 570.084 158.969C572.583 151.984 573.771 144.599 573.589 137.183C573.713 129.065 572.015 121.021 568.619 113.646C559.44 95.0246 539.04 85.4788 507.657 85.4788H459.666V250.766H487.99V192.157H503.551C507.03 207.046 514.54 220.691 525.258 231.596C531.185 237.767 538.318 242.654 546.214 245.952C554.11 249.25 562.6 250.888 571.156 250.766H579.002V222.442L575.733 223.201C572.56 223.704 569.339 223.836 566.135 223.593ZM544.271 138.02C544.271 148.481 541.342 156.118 535.274 160.983C529.207 165.847 519.321 168.436 506.166 168.436H487.859V109.2H508.049C513.8 109.078 519.538 109.809 525.075 111.37C538.099 115.424 544.271 124.107 544.271 138.02ZM649.328 124.996C634.856 125.01 620.953 130.635 610.543 140.687C597.989 152.116 591.634 167.52 591.634 186.455C591.634 230.392 614.413 252.648 659.318 252.648C669.862 252.831 680.392 251.804 690.702 249.589L692.768 249.118V224.011L689.368 224.952C681.19 227.26 672.733 228.431 664.235 228.431C657.949 228.647 651.661 228.094 645.509 226.783C629.818 222.494 621.658 211.091 620.978 192.287H699.306V180.649C699.306 164.304 695.122 150.992 686.831 141.132C677.782 130.435 665.176 124.996 649.328 124.996ZM628.248 155.621C630.812 153.071 633.876 151.081 637.248 149.776C640.619 148.47 644.225 147.878 647.837 148.036C651.177 147.868 654.51 148.491 657.564 149.854C660.618 151.217 663.307 153.283 665.412 155.882C668.643 159.971 670.534 164.958 670.826 170.162H621.553C621.987 164.673 624.36 159.518 628.248 155.621ZM915.042 124.996C895.532 124.996 878.925 130.226 865.718 140.4C858.658 145.97 852.908 153.023 848.875 161.061C844.566 169.55 842.351 178.948 842.415 188.469C842.268 196.441 843.058 204.402 844.769 212.19C846.164 217.813 848.311 223.223 851.15 228.274C853.691 232.555 856.846 236.441 860.513 239.807C863.812 242.769 867.498 245.268 871.471 247.235C875.174 249.101 879.091 250.506 883.136 251.419C886.982 252.213 890.899 252.616 894.826 252.622C898.882 252.625 902.914 251.999 906.778 250.765C913.4 248.82 919.527 245.475 924.745 240.958L925.425 250.896H951.264V127.114L937.691 125.702C932.591 125.231 924.954 124.996 915.042 124.996ZM896.212 150.678C900.947 149.051 905.905 148.169 910.91 148.063C914.885 148.063 918.939 148.298 922.941 148.69V216.296C922.188 217.581 921.312 218.79 920.325 219.905C917.655 223.008 914.324 225.476 910.578 227.128C906.831 228.779 902.763 229.573 898.671 229.451C895.471 229.513 892.293 228.913 889.336 227.689C886.379 226.465 883.707 224.643 881.488 222.337C875.054 215.747 871.785 205.285 871.785 191.215C871.785 176.36 875.604 165.219 883.136 158.105C886.864 154.655 891.339 152.114 896.212 150.678ZM992.298 97.4309H1014.63V126.853H1051.46V149.763H1014.69V203.168C1014.69 216.976 1018.09 225.031 1024.75 227.438C1028.15 228.398 1031.69 228.812 1035.22 228.667C1039.28 228.778 1043.32 228.203 1047.19 226.967L1050.75 225.711V250.112L1048.71 250.583C1046.22 251.092 1043.69 251.355 1041.15 251.368L1030.17 251.577C1014.55 251.577 1002.81 246.346 995.254 235.885C989.291 227.621 986.257 216.662 986.257 203.272V149.763H969.31V134.49L986.649 127.585L992.298 97.4309ZM1074.86 126.853H1103.19V250.766H1074.86V126.853ZM1183.4 217.316L1153.03 126.853H1122.54L1170.09 250.766H1196.84L1244.28 126.853H1213.89L1183.4 217.316ZM1286.48 128.557C1293.88 125.642 1301.79 124.236 1309.74 124.42C1317.57 124.225 1325.35 125.627 1332.61 128.541C1339.87 131.454 1346.46 135.819 1351.98 141.368C1363.93 153.241 1370 169.038 1370 188.443C1370 207.849 1363.88 223.645 1351.85 235.518C1346.33 241.069 1339.75 245.444 1332.49 248.379C1325.24 251.314 1317.46 252.749 1309.64 252.596C1301.7 252.746 1293.81 251.316 1286.43 248.389C1279.05 245.461 1272.32 241.095 1266.64 235.545C1254.3 223.567 1248.02 207.639 1248.02 188.469C1248.02 169.299 1254.3 153.424 1266.64 141.394C1272.33 135.836 1279.08 131.472 1286.48 128.557ZM1323.84 226.26C1327.7 223.995 1331.01 220.894 1333.52 217.185C1338.3 209.889 1340.76 200.238 1340.81 188.574C1340.81 169.953 1335.19 157.635 1323.63 150.887C1319.37 148.492 1314.55 147.282 1309.67 147.383C1304.67 147.257 1299.73 148.448 1295.33 150.835C1291.39 153.033 1288 156.101 1285.42 159.806C1279.78 168.31 1276.97 178.378 1277.39 188.574C1277.39 207.326 1283.12 219.644 1294.86 226.234C1299.35 228.555 1304.35 229.706 1309.4 229.582C1314.42 229.742 1319.4 228.597 1323.84 226.26Z" fill="white"/>
<path d="M415.781 23.4176C415.234 22.7588 414.552 22.2261 413.78 21.8559C413.008 21.4858 412.165 21.2869 411.309 21.2731C410.325 21.2681 409.358 21.5302 408.511 22.0315C381.076 37.7233 325.266 72.0884 293.673 108.833C263.937 143.434 242.413 183.971 242.544 206.959L214.874 240.488L187.492 272.342L221.02 266.771L229.31 257.121L256.928 223.671H257.085C289.776 214.622 315.955 200.918 342.37 165.481C353.694 152.404 348.359 157.635 367.529 131.874L342.37 116.444L376.892 114.77C379.638 109.801 386.019 98.0583 388.582 93.1154L360.938 87.8848L397.814 70.9638C407.255 51.8982 411.78 44.3662 417.063 31.7343C417.608 30.3593 417.777 28.8638 417.551 27.4019C417.326 25.94 416.715 24.5647 415.781 23.4176V23.4176Z" fill="#072B3B"/>
<path fill-rule="evenodd" clip-rule="evenodd" d="M124.724 63.1178H271.181V84.0402H124.724V63.1178ZM124.724 125.885H250.259V146.807H124.724V125.885ZM229.336 188.652H124.724V209.575H229.336V188.652ZM124.724 251.42H187.492V272.342H124.724V251.42Z" fill="white"/>
<path d="M376.892 252.283C372.189 252.291 367.642 253.964 364.055 257.005C360.469 260.045 358.074 264.258 357.297 268.896C356.52 273.533 357.41 278.296 359.81 282.341C362.209 286.385 365.963 289.448 370.406 290.989C370.501 291.464 370.571 291.945 370.615 292.427C370.705 294.494 370.381 296.559 369.663 298.499C368.944 300.439 367.845 302.216 366.431 303.726C366.226 303.948 366.007 304.158 365.777 304.353C361.357 308.224 349.483 312.042 340.016 294.938C334.55 285.497 334.55 272.237 333.844 257.932V206.149C325.83 213.516 317.065 220.02 307.691 225.554V259.265C307.691 260.704 307.691 262.116 307.9 263.528C308.554 278.566 309.234 294.127 317.368 308.145L317.838 308.956H309.522H140.416C126.544 308.956 113.24 303.445 103.43 293.636C93.621 283.827 88.1102 270.523 88.1102 256.65V56.9195C88.3308 46.5878 86.7557 36.2963 83.455 26.5036H255.489C267.305 26.5124 278.769 30.5213 288.016 37.8774C297.262 45.2335 303.745 55.5035 306.409 67.0146C313.445 60.9471 320.82 55.0627 328.247 49.4659C322.397 34.9592 312.344 22.5322 299.38 13.7806C286.416 5.02888 271.131 0.352047 255.489 0.350555L41.0348 0.350555C30.0584 0.502167 19.5866 4.98516 11.9007 12.8229C4.21483 20.6607 -0.062455 31.2181 0.000689324 42.1954V42.1954V63.1178V63.2747C-0.00823638 66.9385 0.993051 70.5339 2.8945 73.6657C4.79594 76.7975 7.52395 79.3445 10.7787 81.0269C14.0335 82.7092 17.6891 83.4616 21.3437 83.2016C24.9983 82.9416 28.5104 81.6791 31.4942 79.5529C34.478 77.4267 36.8179 74.519 38.2568 71.1496C39.6956 67.7801 40.1777 64.0791 39.6501 60.4535C39.1225 56.8278 37.6056 53.4178 35.2661 50.5981C32.9266 47.7785 29.8551 45.6583 26.3891 44.4707C26.3891 43.9999 26.206 43.5292 26.1799 43.0323C25.9376 38.8997 27.3383 34.8388 30.0767 31.7342C31.5282 30.0653 33.326 28.7328 35.3449 27.8295C37.3639 26.9262 39.5554 26.4737 41.7671 26.5036C46.1592 26.5414 50.3738 28.2422 53.5621 31.2634C58.0604 35.9971 61.9572 40.1554 61.9572 56.9195V256.65C61.9572 277.459 70.2234 297.415 84.9373 312.129C99.6512 326.843 119.608 335.109 140.416 335.109H354.871C365.969 335.109 376.612 330.701 384.46 322.853C392.307 315.006 396.716 304.362 396.716 293.264V272.342V272.185C396.716 266.92 394.63 261.87 390.914 258.14C387.199 254.409 382.157 252.303 376.892 252.283V252.283Z" fill="#072B3B"/>
</svg>
