<svg width="272" height="94" viewBox="0 0 272 94" fill="none" xmlns="http://www.w3.org/2000/svg">
<g clip-path="url(#clip0_306_1326)">
<path d="M9.11665 0.0456543C1.94215 0.115559 0.180036 4.7268 0.0458984 7.18396L0.086834 51.8024C0.64547 63.8775 6.21239 73.7039 21.7723 82.0604C34.1355 88.6997 45.9025 96.4554 50.8813 93.1772C54.8635 90.3304 51.5396 86.2821 47.8874 78.0336C38.5024 75.576 31.8848 74.3702 17.2792 70.3057L54.825 73.0146C64.0396 73.5266 73.4019 65.9487 73.5487 52.5183L73.4917 17.9716C73.7605 10.3049 67.5059 0.171677 51.8117 0.0795772L9.11665 0.0456543ZM46.0943 10.6125L52.123 43.7166C52.5371 44.3559 42.2136 54.1066 37.4509 59.6581L37.3654 42.9898C38.3682 42.6424 39.2901 41.6883 39.2835 40.1687C39.2142 38.6928 38.2245 37.3866 36.3858 37.3172C34.9787 37.3196 33.6057 38.2266 33.4579 40.0457C33.3666 41.6635 34.4549 42.6654 35.3119 42.9559L35.4117 59.6123C31.3846 55.5351 20.3118 44.8736 20.5079 43.6188C22.5432 32.4346 24.582 21.8066 26.7503 10.647L46.0943 10.6125Z" fill="white" stroke="white"/>
<path d="M31.4619 15.393H41.2528C42.5948 15.3736 42.5588 17.1699 41.2702 17.1525H31.4273C30.2006 17.1651 30.1566 15.3984 31.4622 15.393H31.4619Z" fill="white" stroke="white" stroke-width="0.34571"/>
<path d="M30.0533 20.123H42.3655C43.7746 20.1036 43.6595 21.8999 42.3875 21.8824H30.0096C28.763 21.9125 28.7947 20.111 30.0534 20.123H30.0533Z" fill="white" stroke="white" stroke-width="0.387679"/>
<path d="M28.5865 24.7944H43.959C45.18 24.8316 45.0946 26.5539 43.9864 26.5539H28.5318C27.2611 26.5419 27.3152 24.8245 28.5865 24.7944Z" fill="white" stroke="white" stroke-width="0.433175"/>
<path d="M109.341 32.358C103.337 31.6224 101.011 35.138 100.904 39.0637V51.5097H94.0088V25.9521H100.683V29.9514C101.641 28.5375 103.931 25.9521 109.357 25.9521L109.341 32.358Z" fill="white" stroke="white" stroke-width="0.345704"/>
<path d="M135.212 40.6167H116.236C116.871 43.7946 119.391 45.5774 122.463 45.773C125.442 45.773 127.068 45.5273 129.974 43.4498L133.632 47.5461C129.972 50.3312 127.315 51.4524 122.067 51.509C113.644 50.9982 109.625 46.0113 109.354 38.1766C109.472 31.2291 114.929 26.0211 122.513 25.9514C131.381 26.0465 135.212 33.1354 135.212 40.6167H135.212ZM128.685 36.5405C128.502 33.3951 126.429 31.2928 122.348 31.1403C118.577 31.3239 116.635 33.489 116.236 36.5405H128.685Z" fill="white" stroke="white" stroke-width="0.345704"/>
<path d="M156.171 26.781L156.137 21.7003L162.896 16.4775V51.5091H156.137V48.0594C154.034 49.7897 153.006 51.3677 147.265 51.5091C139.326 51.1733 136.118 44.1051 136.026 38.1992C136.081 32.6469 139.869 26.509 147.654 25.9515C150.993 25.7134 154.862 27.3152 156.137 28.9103L156.171 26.781ZM149.176 45.7955C153.083 45.7852 156.109 43.6287 156.139 38.7961C156.087 33.3032 152.648 31.5563 149.652 31.4929C144.849 31.5245 142.932 35.7003 142.863 38.4709C142.905 43.0699 145.951 45.7736 149.176 45.7955V45.7955Z" fill="white" stroke="white" stroke-width="0.345704"/>
<path d="M172.494 43.5201C172.363 45.5229 173.815 46.5915 176.613 46.5741C179.288 46.4564 182.282 45.5266 182.391 42.6349L182.398 40.6168C179.922 40.6386 178 40.5527 176.536 40.5544C173.367 40.558 172.479 41.7763 172.494 43.5202L172.494 43.5201ZM188.763 36.5404V51.5091H182.398V48.0594C181.524 49.8351 178.984 51.5091 175.228 51.5091C171.294 51.5121 165.847 49.415 165.786 43.8584C165.751 37.5551 171.084 36.7254 174.512 36.5451L182.399 36.5404C182.137 29.7434 172.781 30.6427 169.194 33.4854L166.909 28.9105C169.557 26.9295 173.697 25.9229 177.869 25.9753C184.657 26.3843 188.684 29.845 188.751 34.4727L188.763 36.5404Z" fill="white" stroke="white" stroke-width="0.345704"/>
<path d="M201.297 16.4775V26.8741H207.525V32.095H201.297V42.4906C201.105 46.8447 204.948 46.829 207.525 45.2228L208.996 50.2349C207.56 50.9542 206.103 51.5567 202.798 51.477C200.4 51.4758 194.58 50.4369 194.491 42.6667V32.0954H190.441V26.8745H194.491V21.7011L201.297 16.4775Z" fill="white" stroke="white" stroke-width="0.345704"/>
<path d="M210.946 25.976H218.006V51.51H210.946V25.976ZM214.563 14.6469C219.855 14.5607 220.192 22.4675 214.563 22.514C209.313 22.5836 208.983 14.7075 214.563 14.6469V14.6469Z" fill="white" stroke="white" stroke-width="0.345704"/>
<path d="M218.782 25.9761H225.892L232.979 43.2651L240.474 25.9761H246.693L236.404 51.5101H229.321L218.782 25.9761Z" fill="white" stroke="white" stroke-width="0.345704"/>
<path d="M258.673 31.4922C254.809 31.5744 251.951 34.5204 251.87 38.4022C251.834 42.6833 254.653 45.4768 258.443 45.7948C261.984 45.5749 265.112 43.4468 265.373 38.3221C265.153 34.3936 262.488 31.6673 258.673 31.4922H258.673ZM258.87 25.9751C266.165 26.3008 271.586 31.1711 271.957 38.4516C271.9 47.0265 264.768 51.5886 258.659 51.5091C252.07 51.4441 245.587 46.6659 245.367 38.4074C245.798 30.652 251.962 26.1164 258.87 25.9751V25.9751Z" fill="white" stroke="white" stroke-width="0.345704"/>
</g>
<defs>
<clipPath id="clip0_306_1326">
<rect width="272" height="94" fill="white"/>
</clipPath>
</defs>
</svg>
