<svg width="272" height="94" viewBox="0 0 272 94" fill="none" xmlns="http://www.w3.org/2000/svg">
<g clip-path="url(#clip0_59_14)">
<path d="M9.11634 0.0456543C1.94185 0.115559 0.179731 4.7268 0.0455933 7.18396L0.0865288 51.8024C0.645165 63.8775 6.21209 73.7039 21.772 82.0604C34.1352 88.6997 45.9022 96.4554 50.881 93.1772C54.8632 90.3304 51.5393 86.2821 47.8871 78.0336C38.5021 75.576 31.8845 74.3702 17.2789 70.3057L54.8247 73.0146C64.0393 73.5266 73.4016 65.9487 73.5484 52.5183L73.4914 17.9716C73.7602 10.3049 67.5056 0.171677 51.8114 0.0795772L9.11634 0.0456543ZM46.094 10.6125L52.1227 43.7166C52.5368 44.3559 42.2133 54.1066 37.4506 59.6581L37.3651 42.9898C38.3679 42.6424 39.2898 41.6883 39.2832 40.1687C39.2139 38.6928 38.2242 37.3866 36.3855 37.3172C34.9784 37.3196 33.6054 38.2266 33.4576 40.0457C33.3663 41.6635 34.4546 42.6654 35.3116 42.9559L35.4114 59.6123C31.3843 55.5351 20.3115 44.8736 20.5076 43.6188C22.5429 32.4346 24.5817 21.8066 26.75 10.647L46.094 10.6125Z" fill="#E6E6E6" stroke="#E6E6E6" stroke-width="0.34571"/>
<path d="M31.4615 15.393H41.2523C42.5943 15.3736 42.5583 17.1699 41.2698 17.1525H31.4269C30.2002 17.1651 30.1561 15.3984 31.4618 15.393H31.4615Z" fill="#E6E6E6" stroke="#E6E6E6" stroke-width="0.34571"/>
<path d="M30.0535 20.123H42.3657C43.7748 20.1036 43.6597 21.8999 42.3876 21.8824H30.0098C28.7632 21.9125 28.7949 20.111 30.0535 20.123H30.0535Z" fill="#E6E6E6" stroke="#E6E6E6" stroke-width="0.387679"/>
<path d="M28.5863 24.7946H43.9588C45.1798 24.8317 45.0943 26.554 43.9861 26.554H28.5316C27.2609 26.5421 27.3149 24.8246 28.5863 24.7946Z" fill="#E6E6E6" stroke="#E6E6E6" stroke-width="0.433175"/>
<path d="M109.341 32.3582C103.337 31.6225 101.01 35.1381 100.903 39.0638V51.5099H94.0086V25.9523H100.683V29.9515C101.641 28.5376 103.931 25.9523 109.357 25.9523L109.341 32.3582Z" fill="#E6E6E6" stroke="#E6E6E6" stroke-width="0.345704"/>
<path d="M135.212 40.6169H116.236C116.872 43.7947 119.391 45.5775 122.463 45.7731C125.442 45.7731 127.068 45.5274 129.974 43.4499L133.632 47.5462C129.972 50.3314 127.315 51.4525 122.067 51.5091C113.644 50.9983 109.626 46.0115 109.354 38.1767C109.472 31.2292 114.929 26.0212 122.513 25.9515C131.381 26.0466 135.212 33.1355 135.212 40.6169H135.212ZM128.685 36.5406C128.502 33.3952 126.429 31.2929 122.349 31.1404C118.577 31.324 116.635 33.4891 116.236 36.5406H128.685Z" fill="#E6E6E6" stroke="#E6E6E6" stroke-width="0.345704"/>
<path d="M156.17 26.781L156.137 21.7003L162.896 16.4775V51.5091H156.137V48.0594C154.034 49.7897 153.005 51.3677 147.265 51.5091C139.326 51.1733 136.117 44.1051 136.026 38.1992C136.081 32.6469 139.868 26.509 147.653 25.9515C150.992 25.7134 154.861 27.3152 156.137 28.9103L156.17 26.781ZM149.175 45.7955C153.082 45.7852 156.108 43.6287 156.138 38.7961C156.086 33.3032 152.648 31.5563 149.651 31.4929C144.849 31.5245 142.931 35.7003 142.862 38.4709C142.904 43.0699 145.95 45.7736 149.175 45.7955Z" fill="#E6E6E6" stroke="#E6E6E6" stroke-width="0.345704"/>
<path d="M172.495 43.5204C172.363 45.5231 173.816 46.5918 176.613 46.5744C179.289 46.4566 182.282 45.5269 182.392 42.6351L182.398 40.6171C179.922 40.6389 178 40.5529 176.537 40.5546C173.367 40.5582 172.48 41.7765 172.495 43.5205L172.495 43.5204ZM188.764 36.5407V51.5093H182.399V48.0597C181.525 49.8354 178.984 51.5093 175.228 51.5093C171.294 51.5124 165.848 49.4153 165.787 43.8586C165.751 37.5553 171.084 36.7256 174.512 36.5453L182.399 36.5407C182.138 29.7436 172.781 30.6429 169.194 33.4856L166.91 28.9107C169.557 26.9297 173.697 25.9232 177.869 25.9756C184.657 26.3846 188.684 29.8452 188.751 34.473L188.764 36.5407Z" fill="#E6E6E6" stroke="#E6E6E6" stroke-width="0.345704"/>
<path d="M201.297 16.4777V26.8742H207.524V32.0951H201.297V42.4907C201.104 46.8448 204.947 46.8291 207.524 45.2229L208.995 50.235C207.559 50.9543 206.103 51.5568 202.797 51.4771C200.399 51.4759 194.579 50.437 194.49 42.6668V32.0955H190.441V26.8746H194.49V21.7012L201.297 16.4777Z" fill="#E6E6E6" stroke="#E6E6E6" stroke-width="0.345704"/>
<path d="M210.946 25.9761H218.005V51.5102H210.946V25.9761ZM214.563 14.6471C219.855 14.5608 220.192 22.4677 214.563 22.5141C209.313 22.5838 208.983 14.7076 214.563 14.6471Z" fill="#E6E6E6" stroke="#E6E6E6" stroke-width="0.345704"/>
<path d="M218.782 25.9761H225.892L232.978 43.2651L240.473 25.9761H246.692L236.403 51.5101H229.321L218.782 25.9761Z" fill="#E6E6E6" stroke="#E6E6E6" stroke-width="0.345704"/>
<path d="M258.673 31.4924C254.809 31.5747 251.951 34.5206 251.87 38.4024C251.834 42.6836 254.653 45.4771 258.443 45.7951C261.984 45.5751 265.112 43.447 265.373 38.3224C265.153 34.3938 262.488 31.6675 258.673 31.4924H258.673ZM258.87 25.9753C266.165 26.3011 271.586 31.1714 271.957 38.4518C271.9 47.0267 264.768 51.5889 258.659 51.5094C252.07 51.4443 245.588 46.6661 245.367 38.4077C245.798 30.6522 251.962 26.1167 258.87 25.9753Z" fill="#E6E6E6" stroke="#E6E6E6" stroke-width="0.345704"/>
</g>
<defs>
<clipPath id="clip0_59_14">
<rect width="272" height="94" fill="white"/>
</clipPath>
</defs>
</svg>
