<svg width="51" height="50" viewBox="0 0 51 50" fill="none" xmlns="http://www.w3.org/2000/svg">
<path fill-rule="evenodd" clip-rule="evenodd" d="M11.0884 8.33329C10.5358 8.33329 10.0059 8.55279 9.61524 8.94349C9.22454 9.33419 9.00505 9.86409 9.00505 10.4166V39.5833C9.00505 40.1358 9.22454 40.6657 9.61524 41.0564C10.0059 41.4471 10.5358 41.6666 11.0884 41.6666H40.255C40.8076 41.6666 41.3375 41.4471 41.7282 41.0564C42.1189 40.6657 42.3384 40.1358 42.3384 39.5833V17.5296L33.1421 8.33329H11.0884ZM6.66896 5.99721C7.84106 4.82511 9.43078 4.16663 11.0884 4.16663H34.005C34.5576 4.16663 35.0875 4.38612 35.4782 4.77682L45.8949 15.1935C46.2856 15.5842 46.505 16.1141 46.505 16.6666V39.5833C46.505 41.2409 45.8466 42.8306 44.6745 44.0027C43.5024 45.1748 41.9127 45.8333 40.255 45.8333H11.0884C9.43078 45.8333 7.84106 45.1748 6.66896 44.0027C5.49686 42.8306 4.83838 41.2409 4.83838 39.5833V10.4166C4.83838 8.75902 5.49686 7.16931 6.66896 5.99721Z" fill="#1E70F7"/>
<path fill-rule="evenodd" clip-rule="evenodd" d="M13.1719 27.0833C13.1719 25.9327 14.1046 25 15.2552 25H36.0885C37.2391 25 38.1719 25.9327 38.1719 27.0833V43.75C38.1719 44.9006 37.2391 45.8333 36.0885 45.8333C34.9379 45.8333 34.0052 44.9006 34.0052 43.75V29.1667H17.3385V43.75C17.3385 44.9006 16.4058 45.8333 15.2552 45.8333C14.1046 45.8333 13.1719 44.9006 13.1719 43.75V27.0833Z" fill="#1E70F7"/>
<path fill-rule="evenodd" clip-rule="evenodd" d="M15.2552 4.16663C16.4058 4.16663 17.3385 5.09937 17.3385 6.24996V14.5833H31.9219C33.0725 14.5833 34.0052 15.516 34.0052 16.6666C34.0052 17.8172 33.0725 18.75 31.9219 18.75H15.2552C14.1046 18.75 13.1719 17.8172 13.1719 16.6666V6.24996C13.1719 5.09937 14.1046 4.16663 15.2552 4.16663Z" fill="#1E70F7"/>
</svg>
