<svg width="48" height="50" viewBox="0 0 48 50" fill="none" xmlns="http://www.w3.org/2000/svg">
<path fill-rule="evenodd" clip-rule="evenodd" d="M7.70434 3.73168C8.82187 2.61415 10.3376 1.98633 11.918 1.98633H25.8223C26.3491 1.98633 26.8544 2.1956 27.2269 2.56811L41.1312 16.4724C41.5037 16.845 41.713 17.3502 41.713 17.877V39.7267C41.713 41.3071 41.0852 42.8228 39.9676 43.9403C38.8501 45.0578 37.3344 45.6857 35.754 45.6857H11.918C10.3376 45.6857 8.82186 45.0578 7.70434 43.9403C6.58681 42.8228 5.95898 41.3071 5.95898 39.7267V7.94533C5.95898 6.3649 6.58681 4.84921 7.70434 3.73168ZM11.918 5.959C11.3912 5.959 10.8859 6.16827 10.5134 6.54078C10.1409 6.91329 9.93165 7.41852 9.93165 7.94533V39.7267C9.93165 40.2535 10.1409 40.7587 10.5134 41.1312C10.8859 41.5037 11.3912 41.713 11.918 41.713H35.754C36.2808 41.713 36.786 41.5037 37.1585 41.1312C37.5311 40.7587 37.7403 40.2535 37.7403 39.7267V18.6998L24.9996 5.959H11.918Z" fill="#1E70F7"/>
<path fill-rule="evenodd" clip-rule="evenodd" d="M25.8223 1.98633C26.9193 1.98633 27.8086 2.87564 27.8086 3.97266V15.8907H39.7266C40.8236 15.8907 41.7129 16.78 41.7129 17.877C41.7129 18.974 40.8236 19.8633 39.7266 19.8633H25.8223C24.7252 19.8633 23.8359 18.974 23.8359 17.877V3.97266C23.8359 2.87564 24.7252 1.98633 25.8223 1.98633Z" fill="#1E70F7"/>
<path fill-rule="evenodd" clip-rule="evenodd" d="M22.0345 22.7731C22.8102 21.9974 24.0678 21.9974 24.8435 22.7731L34.7752 32.7047C35.5509 33.4804 35.5509 34.7381 34.7752 35.5138C33.9995 36.2895 32.7418 36.2895 31.9661 35.5138L23.439 26.9867L14.9119 35.5138C14.1362 36.2895 12.8785 36.2895 12.1028 35.5138C11.3271 34.7381 11.3271 33.4804 12.1028 32.7047L22.0345 22.7731Z" fill="#1E70F7"/>
<path fill-rule="evenodd" clip-rule="evenodd" d="M23.439 22.1913C24.536 22.1913 25.4253 23.0806 25.4253 24.1776V48.0136C25.4253 49.1106 24.536 50 23.439 50C22.342 50 21.4527 49.1106 21.4527 48.0136V24.1776C21.4527 23.0806 22.342 22.1913 23.439 22.1913Z" fill="#1E70F7"/>
</svg>
