<svg width="30" height="30" viewBox="0 0 30 30" fill="none" xmlns="http://www.w3.org/2000/svg">
<path fill-rule="evenodd" clip-rule="evenodd" d="M15 2.5C10.8579 2.5 7.5 5.85786 7.5 10C7.5 14.1421 10.8579 17.5 15 17.5C19.1421 17.5 22.5 14.1421 22.5 10C22.5 5.85786 19.1421 2.5 15 2.5ZM5 10C5 4.47715 9.47715 0 15 0C20.5228 0 25 4.47715 25 10C25 15.5228 20.5228 20 15 20C9.47715 20 5 15.5228 5 10Z" fill="#0047AD"/>
<path fill-rule="evenodd" clip-rule="evenodd" d="M19.5731 16.1109C20.2575 16.0201 20.8859 16.5012 20.9767 17.1856L22.4892 28.5856C22.5523 29.0614 22.3374 29.5313 21.9363 29.7948C21.5351 30.0583 21.0185 30.0688 20.6069 29.8219L15 26.4577L9.39315 29.8219C8.98156 30.0688 8.46491 30.0583 8.06373 29.7947C7.66256 29.5312 7.44771 29.0612 7.51091 28.5854L9.02341 17.1979C9.11431 16.5136 9.74277 16.0325 10.4271 16.1234C11.1115 16.2143 11.5925 16.8427 11.5016 17.5271L10.3306 26.3439L14.3569 23.9281C14.7528 23.6906 15.2473 23.6906 15.6432 23.9281L19.6699 26.3442L18.4984 17.5144C18.4076 16.83 18.8888 16.2017 19.5731 16.1109Z" fill="#0047AD"/>
</svg>
