<svg width="30" height="30" viewBox="0 0 30 30" fill="none" xmlns="http://www.w3.org/2000/svg">
<path fill-rule="evenodd" clip-rule="evenodd" d="M8.125 22.5C7.62772 22.5 7.15081 22.6975 6.79917 23.0492C6.44754 23.4008 6.25 23.8777 6.25 24.375C6.25 25.0654 5.69036 25.625 5 25.625C4.30964 25.625 3.75 25.0654 3.75 24.375C3.75 23.2147 4.21094 22.1019 5.03141 21.2814C5.85188 20.4609 6.96468 20 8.125 20H25C25.6904 20 26.25 20.5596 26.25 21.25C26.25 21.9404 25.6904 22.5 25 22.5H8.125Z" fill="#0047AD"/>
<path fill-rule="evenodd" clip-rule="evenodd" d="M8.125 3.75C7.62772 3.75 7.15081 3.94754 6.79917 4.29917C6.44754 4.65081 6.25 5.12772 6.25 5.625V24.375C6.25 24.8723 6.44754 25.3492 6.79917 25.7008C7.15081 26.0525 7.62772 26.25 8.125 26.25H23.75V3.75H8.125ZM8.125 1.25H25C25.6904 1.25 26.25 1.80964 26.25 2.5V27.5C26.25 28.1904 25.6904 28.75 25 28.75H8.125C6.96468 28.75 5.85188 28.2891 5.03141 27.4686C4.21094 26.6481 3.75 25.5353 3.75 24.375V5.625C3.75 4.46468 4.21094 3.35188 5.03141 2.53141C5.85188 1.71094 6.96468 1.25 8.125 1.25Z" fill="#0047AD"/>
</svg>
