<?xml version="1.0" encoding="UTF-8"?>
<!-- Created with Inkscape (http://www.inkscape.org/) -->
<svg width="7.214mm" height="7.214mm" version="1.1" viewBox="0 0 7.214 7.214" xmlns="http://www.w3.org/2000/svg">
 <g transform="translate(-121.85 -36.189)" clip-rule="evenodd" fill="#0047ad" fill-rule="evenodd">
  <g transform="matrix(.24164 0 0 .24164 90.309 36.183)">
   <path d="m15 2.5c-4.1421 0-7.5 3.3579-7.5 7.5 0 4.1421 3.3579 7.5 7.5 7.5s7.5-3.3579 7.5-7.5c0-4.1421-3.3579-7.5-7.5-7.5zm-10 7.5c0-5.5228 4.4772-10 10-10 5.5228 0 10 4.4772 10 10 0 5.5228-4.4772 10-10 10-5.5228 0-10-4.4772-10-10z"/>
   <path d="m19.573 16.111c0.6844-0.0908 1.3128 0.3903 1.4036 1.0747l1.5125 11.4c0.0631 0.4758-0.1518 0.9457-0.5529 1.2092-0.4012 0.2635-0.9178 0.274-1.3294 0.0271l-5.6069-3.3642-5.6068 3.3642c-0.41159 0.2469-0.92824 0.2364-1.3294-0.0272-0.40117-0.2635-0.61602-0.7335-0.55282-1.2093l1.5125-11.388c0.0909-0.6843 0.71936-1.1654 1.4037-1.0745 0.6844 0.0909 1.1654 0.7193 1.0745 1.4037l-1.171 8.8168 4.0263-2.4158c0.3959-0.2375 0.8904-0.2375 1.2863 0l4.0267 2.4161-1.1715-8.8298c-0.0908-0.6844 0.3904-1.3127 1.0747-1.4035z"/>
  </g>
  <g transform="matrix(.26344 0 0 .26344 97.029 35.861)">
   <path d="m8.125 22.5c-0.49728 0-0.97419 0.1975-1.3258 0.5492-0.35163 0.3516-0.54917 0.8285-0.54917 1.3258 0 0.6904-0.55964 1.25-1.25 1.25s-1.25-0.5596-1.25-1.25c0-1.1603 0.46094-2.2731 1.2814-3.0936s1.9333-1.2814 3.0936-1.2814h16.875c0.6904 0 1.25 0.5596 1.25 1.25s-0.5596 1.25-1.25 1.25z"/>
   <path d="m8.125 3.75c-0.49728 0-0.97419 0.19754-1.3258 0.54917-0.35163 0.35164-0.54917 0.82855-0.54917 1.3258v18.75c0 0.4973 0.19754 0.9742 0.54917 1.3258 0.35164 0.3517 0.82855 0.5492 1.3258 0.5492h15.625v-22.5zm0-2.5h16.875c0.6904 0 1.25 0.55964 1.25 1.25v25c0 0.6904-0.5596 1.25-1.25 1.25h-16.875c-1.1603 0-2.2731-0.4609-3.0936-1.2814s-1.2814-1.9333-1.2814-3.0936v-18.75c0-1.1603 0.46094-2.2731 1.2814-3.0936s1.9333-1.2814 3.0936-1.2814z"/>
  </g>
  <g transform="matrix(.32781 0 0 .32781 104.38 35.897)">
   <path d="m1.8787 3.8787c0.56261-0.56261 1.3257-0.87868 2.1213-0.87868h7c0.5523 0 1 0.44772 1 1s-0.4477 1-1 1h-7c-0.26522 0-0.51957 0.10536-0.70711 0.29289-0.18753 0.18754-0.29289 0.44189-0.29289 0.70711v14c0 0.2652 0.10536 0.5196 0.29289 0.7071 0.18754 0.1875 0.44189 0.2929 0.70711 0.2929h14c0.2652 0 0.5196-0.1054 0.7071-0.2929s0.2929-0.4419 0.2929-0.7071v-7c0-0.5523 0.4477-1 1-1s1 0.4477 1 1v7c0 0.7957-0.3161 1.5587-0.8787 2.1213s-1.3256 0.8787-2.1213 0.8787h-14c-0.79565 0-1.5587-0.3161-2.1213-0.8787s-0.87868-1.3256-0.87868-2.1213v-14c0-0.79565 0.31607-1.5587 0.87868-2.1213z"/>
   <path d="m20 2.8787c-0.2974 0-0.5826 0.11814-0.7929 0.32843l-9.3041 9.3041-0.5286 2.1144 2.1144-0.5286 9.3041-9.3041c0.2103-0.21029 0.3284-0.49551 0.3284-0.7929s-0.1181-0.5826-0.3284-0.79289-0.4955-0.32843-0.7929-0.32843zm-2.2071-1.0858c0.5854-0.58537 1.3793-0.91422 2.2071-0.91422s1.6218 0.32885 2.2071 0.91422c0.5854 0.58536 0.9142 1.3793 0.9142 2.2071 0 0.82783-0.3288 1.6218-0.9142 2.2071l-9.5 9.5c-0.1281 0.1281-0.2887 0.2191-0.4645 0.263l-4 1c-0.34078 0.0852-0.70127-0.0146-0.94965-0.263s-0.34823-0.6089-0.26303-0.9497l1-4c0.04396-0.1758 0.13488-0.3364 0.26303-0.4645z"/>
  </g>
  <g transform="matrix(.26344 0 0 .26344 113.06 35.86)">
   <path d="m22.866 14.116c0.4882-0.4881 1.2796-0.4881 1.7678 0l3.75 3.75c0.4881 0.4882 0.4881 1.2796 0 1.7678l-8.75 8.75c-0.4882 0.4881-1.2796 0.4881-1.7678 0l-3.75-3.75c-0.4881-0.4882-0.4881-1.2796 0-1.7678zm-6.0983 9.6339 1.9822 1.9822 6.9822-6.9822-1.9822-1.9822z"/>
   <path d="m1.6161 1.6161c0.30792-0.30791 0.75389-0.43339 1.1772-0.33122l18.125 4.375c0.4732 0.11421 0.837 0.49268 0.9324 0.96996l1.8751 9.375c0.0819 0.4098-0.0464 0.8335-0.3419 1.129l-6.25 6.25c-0.2955 0.2955-0.7192 0.4238-1.129 0.3419l-9.375-1.8751c-0.47728-0.0954-0.85575-0.4592-0.96996-0.9324l-4.375-18.125c-0.10217-0.4233 0.02331-0.86927 0.33122-1.1772zm2.5789 2.5789 3.7078 15.361 7.9364 1.5873 5.3039-5.3039-1.5873-7.9364z"/>
   <path d="m1.6161 1.6161c0.48815-0.48816 1.2796-0.48816 1.7678 0l9.4825 9.4825c0.4881 0.4882 0.4881 1.2796 0 1.7678-0.4882 0.4881-1.2796 0.4881-1.7678 0l-9.4825-9.4825c-0.48816-0.48815-0.48816-1.2796 0-1.7678z"/>
   <path d="m13.75 12.5c-0.6904 0-1.25 0.5596-1.25 1.25s0.5596 1.25 1.25 1.25 1.25-0.5596 1.25-1.25-0.5596-1.25-1.25-1.25zm-3.75 1.25c0-2.0711 1.6789-3.75 3.75-3.75s3.75 1.6789 3.75 3.75-1.6789 3.75-3.75 3.75-3.75-1.6789-3.75-3.75z"/>
  </g>
  <g transform="matrix(.24047 0 0 .24047 121.85 36.189)">
   <path d="m15 12.5c-1.3807 0-2.5 1.1193-2.5 2.5s1.1193 2.5 2.5 2.5 2.5-1.1193 2.5-2.5-1.1193-2.5-2.5-2.5zm-5 2.5c0-2.7614 2.2386-5 5-5s5 2.2386 5 5-2.2386 5-5 5-5-2.2386-5-5z"/>
   <path d="m15 2.5c-0.3315 0-0.6495 0.1317-0.8839 0.36612s-0.3661 0.55236-0.3661 0.88388v0.21749c-0.0026 0.64601-0.194 1.2772-0.5507 1.8158s-0.8631 0.96117-1.4569 1.2156c-0.1057 0.0453-0.2169 0.0757-0.3304 0.09054-0.5395 0.18894-1.1203 0.23551-1.6858 0.13299-0.65125-0.11808-1.2522-0.42855-1.7253-0.89137l-0.00986-0.00964-0.07494-0.07506c-0.11609-0.11622-0.25445-0.20891-0.40619-0.27181-0.15175-0.06291-0.31441-0.09529-0.47868-0.09529s-0.32693 0.03238-0.47868 0.09529c-0.15174 0.0629-0.2896 0.1551-0.4057 0.27132l-9.8e-4 9.8e-4c-0.11622 0.1161-0.20842 0.25396-0.27132 0.4057-0.06291 0.15175-0.09529 0.31441-0.09529 0.47868s0.03238 0.32693 0.09529 0.47868c0.0629 0.15174 0.1551 0.2896 0.27132 0.40569l0.08524 0.08525c0.46282 0.47314 0.77324 1.0741 0.89132 1.7254 0.11573 0.63825 0.04146 1.2962-0.21314 1.8922-0.23195 0.6082-0.63809 1.1348-1.168 1.5139-0.54063 0.3866-1.1851 0.6017-1.8496 0.6173l-0.02923 3e-4h-0.1125c-0.33152 0-0.64946 0.1317-0.88388 0.3661s-0.36612 0.5524-0.36612 0.8839 0.1317 0.6495 0.36612 0.8839 0.55236 0.3661 0.88388 0.3661h0.21749c0.64601 0.0026 1.2772 0.194 1.8158 0.5507 0.53674 0.3555 0.95823 0.8596 1.213 1.4507 0.26508 0.6039 0.34387 1.2733 0.22618 1.9223-0.11808 0.6513-0.42855 1.2522-0.89137 1.7254l-0.00965 0.0098-0.07505 0.075c-0.11622 0.1161-0.20891 0.2544-0.27181 0.4062-0.06291 0.1517-0.09529 0.3144-0.09529 0.4787 0 0.1642 0.03238 0.3269 0.09529 0.4786 0.0629 0.1518 0.1551 0.2896 0.27132 0.4057l9.9e-4 1e-3c0.11608 0.1162 0.25394 0.2084 0.40569 0.2713s0.31441 0.0953 0.47868 0.0953 0.32693-0.0324 0.47868-0.0953 0.28961-0.1551 0.40569-0.2713l0.08525-0.0852c0.47314-0.4629 1.0741-0.7733 1.7254-0.8913 0.63825-0.1158 1.2962-0.0415 1.8922 0.2131 0.6082 0.2319 1.1348 0.6381 1.5139 1.168 0.3866 0.5406 0.6017 1.1851 0.6173 1.8496l3e-4 0.0292v0.1125c0 0.3315 0.1317 0.6495 0.3661 0.8839s0.5524 0.3661 0.8839 0.3661 0.6495-0.1317 0.8839-0.3661 0.3661-0.5524 0.3661-0.8839v-0.2175c0.0026-0.646 0.194-1.2772 0.5507-1.8158 0.3555-0.5368 0.8597-0.9583 1.4508-1.213 0.6039-0.2651 1.2732-0.3438 1.9222-0.2262 0.6513 0.1181 1.2522 0.4286 1.7254 0.8914l0.0098 0.0097 0.075 0.075c0.1161 0.1162 0.2544 0.2089 0.4062 0.2718 0.1517 0.0629 0.3144 0.0953 0.4787 0.0953 0.1642 0 0.3269-0.0324 0.4786-0.0953 0.1518-0.0629 0.2896-0.1551 0.4057-0.2713l1e-3 -1e-3c0.1162-0.1161 0.2084-0.2539 0.2713-0.4057 0.0629-0.1517 0.0953-0.3144 0.0953-0.4787 0-0.1642-0.0324-0.3269-0.0953-0.4786-0.0629-0.1518-0.1551-0.2896-0.2713-0.4057l-0.0852-0.0853c-0.4629-0.4731-0.7733-1.0741-0.8913-1.7254-0.1177-0.649-0.039-1.3183 0.2261-1.9222 0.2547-0.5911 0.6762-1.0953 1.213-1.4508 0.5386-0.3567 1.1698-0.5481 1.8158-0.5507h0.1175c0.3315 0 0.6495-0.1317 0.8839-0.3661s0.3661-0.5524 0.3661-0.8839-0.1317-0.6495-0.3661-0.8839-0.5524-0.3661-0.8839-0.3661h-0.2175c-0.646-0.0026-1.2772-0.194-1.8158-0.5507s-0.9611-0.8631-1.2156-1.4569c-0.0453-0.1057-0.0757-0.2169-0.0906-0.3304-0.1889-0.5395-0.2355-1.1203-0.133-1.6858 0.1181-0.65125 0.4286-1.2522 0.8914-1.7253l0.0097-0.00985 0.075-0.07495c0.1162-0.11609 0.2089-0.25445 0.2718-0.40619 0.0629-0.15175 0.0953-0.31441 0.0953-0.47868s-0.0324-0.32693-0.0953-0.47868c-0.0629-0.15174-0.1551-0.2896-0.2713-0.4057l-1e-3 -9.8e-4c-0.1161-0.11622-0.2539-0.20842-0.4057-0.27132-0.1517-0.06291-0.3144-0.09529-0.4787-0.09529-0.1642 0-0.3269 0.03238-0.4786 0.09529-0.1518 0.0629-0.2896 0.1551-0.4057 0.27132l-0.0853 0.08524c-0.4731 0.46282-1.0741 0.77324-1.7254 0.89132-0.649 0.11769-1.3184 0.0389-1.9223-0.22618-0.5911-0.25477-1.0952-0.67626-1.4507-1.213-0.3567-0.53861-0.5481-1.1698-0.5507-1.8158v-0.11749c0-0.33152-0.1317-0.64946-0.3661-0.88388s-0.5524-0.36612-0.8839-0.36612zm9.25 16.25 1.1436 0.5047c-0.0656 0.1485-0.0851 0.3133-0.0562 0.473 0.0287 0.158 0.1035 0.3039 0.2149 0.4194l0.0686 0.0685c2e-4 2e-4 -2e-4 -1e-4 0 0 0.3484 0.3482 0.6253 0.7621 0.814 1.2171 0.1887 0.4553 0.2858 0.9432 0.2858 1.436 0 0.4929-0.0971 0.9808-0.2858 1.4361-0.1888 0.4552-0.4653 0.8688-0.814 1.2171l-0.8834-0.8844 0.8844 0.8834c-0.3483 0.3487-0.7619 0.6252-1.2171 0.814-0.4553 0.1887-0.9432 0.2858-1.436 0.2858-0.4929 0-0.9808-0.0971-1.4361-0.2858-0.455-0.1887-0.8684-0.4651-1.2166-0.8135-1e-4 -2e-4 2e-4 1e-4 0 0l-0.069-0.0691c-0.1155-0.1114-0.2614-0.1862-0.4194-0.2149-0.1597-0.0289-0.3245-0.0094-0.473 0.0562l-0.0123 0.0054c-0.1456 0.0624-0.2698 0.166-0.3573 0.2981-0.0872 0.1316-0.1341 0.2857-0.1351 0.4435v0.2094c0 0.9946-0.3951 1.9484-1.0984 2.6517-0.7032 0.7032-1.657 1.0983-2.6516 1.0983s-1.9484-0.3951-2.6517-1.0983c-0.7032-0.7033-1.0983-1.6571-1.0983-2.6517v-0.0945c-0.0059-0.159-0.0584-0.3129-0.1511-0.4424-0.0948-0.1326-0.2274-0.2337-0.3804-0.2899-0.0247-0.0091-0.0491-0.019-0.0732-0.0296-0.1485-0.0656-0.3133-0.0851-0.473-0.0562-0.158 0.0287-0.30396 0.1035-0.41943 0.215l-0.06849 0.0685c-1.7e-4 2e-4 1.6e-4 -2e-4 0 0-0.34818 0.3484-0.76207 0.6253-1.2171 0.814-0.45525 0.1887-0.94322 0.2858-1.436 0.2858s-0.98078-0.0971-1.436-0.2858c-0.45481-0.1886-0.86804-0.4648-1.2161-0.813-0.34866-0.3483-0.62526-0.7619-0.81398-1.2171-0.18871-0.4553-0.28585-0.9432-0.28585-1.436 0-0.4929 0.09714-0.9808 0.28585-1.4361 0.18872-0.4552 0.46532-0.8688 0.81398-1.2171l0.06853-0.0685c0.11147-0.1155 0.18627-0.2614 0.21492-0.4194 0.02896-0.1597 0.00941-0.3245-0.05614-0.473l-0.00541-0.0123c-0.06242-0.1456-0.166-0.2698-0.29812-0.3573-0.13159-0.0872-0.28571-0.1341-0.44352-0.1351h-0.20937c-0.99456 0-1.9484-0.3951-2.6516-1.0984-0.70326-0.7032-1.0984-1.657-1.0984-2.6516s0.39509-1.9484 1.0984-2.6517c0.70326-0.7032 1.6571-1.0983 2.6516-1.0983h0.09455c0.15899-0.0059 0.31284-0.0584 0.44239-0.1511 0.13261-0.0948 0.23361-0.2274 0.28989-0.3804 0.00909-0.0247 0.01896-0.0491 0.02959-0.0732 0.06555-0.1485 0.0851-0.3133 0.05614-0.473-0.02865-0.158-0.10346-0.30395-0.21494-0.41941l-0.06851-0.06851c-0.34866-0.34828-0.62526-0.76186-0.81398-1.2171-0.18871-0.45525-0.28585-0.94322-0.28585-1.436s0.09714-0.98078 0.28585-1.436c0.18863-0.45502 0.46506-0.86843 0.81349-1.2166 0.34817-0.34843 0.76158-0.62486 1.2166-0.81349 0.45525-0.18871 0.94322-0.28585 1.436-0.28585s0.98078 0.09714 1.436 0.28585c0.45524 0.18872 0.86882 0.46532 1.2171 0.81398l0.06852 0.06851c0.11546 0.11148 0.26141 0.18629 0.41941 0.21494 0.1597 0.02896 0.3245 0.00941 0.473-0.05614 0.08-0.03533 0.1634-0.06206 0.2485-0.07989 0.0872-0.05916 0.1624-0.13499 0.2211-0.22364 0.0872-0.13159 0.1341-0.28571 0.1351-0.44352v-0.20937c0-0.99456 0.3951-1.9484 1.0984-2.6516 0.7032-0.70326 1.657-1.0984 2.6516-1.0984s1.9484 0.39509 2.6516 1.0984c0.7033 0.70326 1.0984 1.6571 1.0984 2.6516v0.10937c1e-3 0.15781 0.0479 0.31193 0.1351 0.44353 0.0875 0.13211 0.2117 0.23575 0.3573 0.29818l0.0123 0.00528c0.1486 0.06555 0.3133 0.08516 0.473 0.0562 0.158-0.02865 0.3039-0.10345 0.4194-0.21492l0.0685-0.06853c0.3483-0.34866 0.7619-0.62526 1.2171-0.81398 0.4553-0.18871 0.9432-0.28585 1.436-0.28585 0.4929 0 0.9808 0.09714 1.4361 0.28585 0.4552 0.18872 0.8688 0.46532 1.2171 0.81398 0.3482 0.34807 0.6244 0.7613 0.813 1.2161 0.1887 0.45525 0.2858 0.94322 0.2858 1.436s-0.0971 0.98079-0.2858 1.436c-0.1887 0.45503-0.4651 0.86843-0.8135 1.2166-2e-4 1.7e-4 1e-4 -1.7e-4 0 0l-0.069 0.06901c-0.1115 0.11546-0.1863 0.26141-0.215 0.41941-0.0289 0.1597-0.0094 0.3245 0.0562 0.473 0.0353 0.08 0.062 0.1634 0.0799 0.2485 0.0591 0.0872 0.135 0.1624 0.2236 0.2211 0.1316 0.0872 0.2857 0.1341 0.4435 0.1351h0.2094c0.9946 0 1.9484 0.3951 2.6517 1.0984 0.7032 0.7032 1.0983 1.657 1.0983 2.6516s-0.3951 1.9484-1.0983 2.6516c-0.7033 0.7033-1.6571 1.0984-2.6517 1.0984h-0.1094c-0.1578 1e-3 -0.3119 0.0479-0.4435 0.1351-0.1321 0.0875-0.2358 0.2117-0.2982 0.3573z"/>
  </g>
 </g>
</svg>
