<?xml version="1.0" encoding="utf-8"?>
<!-- Generator: Adobe Illustrator 22.0.1, SVG Export Plug-In . SVG Version: 6.00 Build 0)  -->
<svg version="1.1" xmlns="http://www.w3.org/2000/svg" xmlns:xlink="http://www.w3.org/1999/xlink" x="0px" y="0px"
	 viewBox="0 0 1920 1080" style="enable-background:new 0 0 1920 1080;" xml:space="preserve">
<style type="text/css">
	.st0{fill:#DADAEF;}
	.st1{fill:#FFFFFF;stroke:#434244;stroke-width:5;stroke-miterlimit:10;}
	.st2{fill:#D14175;}
	.st3{fill:none;stroke:#434244;stroke-width:5;stroke-miterlimit:10;}
	.st4{fill:none;stroke:#434244;stroke-width:3;stroke-miterlimit:10;}
	.st5{fill:#FFFFFF;stroke:#282525;stroke-width:2;stroke-miterlimit:10;}
	.st6{fill:#A255D8;}
	.st7{fill:#F1F1F2;stroke:#434244;stroke-width:5;stroke-linecap:round;stroke-miterlimit:10;}
	.st8{fill:none;stroke:#434244;stroke-width:5;stroke-linecap:round;stroke-miterlimit:10;}
	.st9{fill:none;stroke:#434244;stroke-width:3;stroke-linecap:round;stroke-miterlimit:10;}
	.st10{fill:#F1F1F2;stroke:#434244;stroke-width:5;stroke-miterlimit:10;}
	.st11{fill:none;stroke:#434244;stroke-width:6;stroke-linecap:round;stroke-miterlimit:10;}
	.st12{fill:none;stroke:#434244;stroke-width:9;stroke-linecap:round;stroke-miterlimit:10;}
	.st13{fill:#F1F1F2;}
	.st14{fill:none;stroke:#282525;stroke-width:5;stroke-miterlimit:10;}
	.st15{fill:#FFFFFF;stroke:#434244;stroke-width:5;stroke-linejoin:round;stroke-miterlimit:10;}
	.st16{fill:#FFFFFF;stroke:#434244;stroke-width:4;stroke-miterlimit:10;}
	.st17{fill:none;stroke:#282525;stroke-width:3;stroke-miterlimit:10;}
	.st18{fill:#F1F1F2;stroke:#434244;stroke-width:3;stroke-miterlimit:10;}
	.st19{fill:none;stroke:#59595B;stroke-width:3;stroke-miterlimit:10;}
	.st20{fill:#FFFFFF;stroke:#434244;stroke-width:2;stroke-miterlimit:10;}
	.st21{fill:#8935BB;}
	.st22{fill:none;stroke:#434244;stroke-width:8;stroke-linecap:round;stroke-miterlimit:10;}
	.st23{fill:#434244;}
	.st24{fill:#FFFFFF;}
	.st25{fill-rule:evenodd;clip-rule:evenodd;fill:#434244;}
	.st26{fill-rule:evenodd;clip-rule:evenodd;fill:#A255D8;}
	.st27{fill:none;stroke:#434244;stroke-width:8;stroke-linecap:round;stroke-linejoin:round;stroke-miterlimit:10;}
	.st28{fill:none;stroke:#434244;stroke-width:5;stroke-linecap:round;stroke-linejoin:round;stroke-miterlimit:10;}
	.st29{fill:#1E70F7;}
	.st30{fill:#282525;}
	.st31{fill:#59595B;}
</style>
<g id="Camada_1">
</g>
<g id="Camada_2">
</g>
<g id="Layer_3">
	<g>
		<g>
			<path class="st0" d="M162.9,802.7c-26.9-56.2-38.2-122.1-19.3-181.4c18.9-59.4,72-109.5,134.1-114c40.8-3,81.7,12.9,122.1,6.8
				c44.8-6.8,80.7-39,115.7-67.8c81.5-67,172.3-122.6,269.1-164.5c94.1-40.8,195.9-68.9,298.3-63.5s205.8,47.9,269.8,128
				c64,80.1,80.9,200.1,27.2,287.5c-20.3,33.1-50.9,68.9-37.5,105.3c10.7,28.9,45.1,42.2,60.2,69.1c20.1,35.7-2.5,83.2-37.4,104.5
				c-34.9,21.3-80.3,32.2-121.2,32.2c-53.6,0-107.3,0-160.9,0c-116,0-231.9,0-347.9,0c-110.9,0-221.8,0-332.8,0
				c-39.7,0-80.6-2-119.9,0.2c0-12.7-10-2.2-17.9-4.6c-12.4-3.8-30.3-32.8-38.6-42.8C201.6,868.6,179.5,837.1,162.9,802.7z"/>
		</g>
		<g>
			<g>
				<path class="st24" d="M1146.8,400.2H686.5c-7.6,0-13.8-6.2-13.8-13.8v-198c0-7.6,6.2-13.8,13.8-13.8h460.3
					c7.6,0,13.8,6.2,13.8,13.8v198C1160.7,394,1154.5,400.2,1146.8,400.2z"/>
				<path class="st23" d="M1146.8,402.7H686.5c-9,0-16.3-7.3-16.3-16.3v-198c0-9,7.3-16.3,16.3-16.3h460.3c9,0,16.3,7.3,16.3,16.3
					v198C1163.2,395.4,1155.8,402.7,1146.8,402.7z M686.5,177c-6.2,0-11.3,5.1-11.3,11.3v198c0,6.2,5.1,11.3,11.3,11.3h460.3
					c6.3,0,11.3-5.1,11.3-11.3v-198c0-6.2-5.1-11.3-11.3-11.3H686.5z"/>
			</g>
			<g>
				<path class="st29" d="M1119.7,169h-35h-383h-20.4c-8.1,0-14.6,6.5-14.6,14.6V204h35h383h35h35v-18.4c0-9.2-7.4-16.6-16.6-16.6
					H1119.7z"/>
			</g>
			<g>
				<path class="st23" d="M1163.2,212h-40v-40h25c8.3,0,15,6.7,15,15V212z M1128.2,207h30v-20c0-5.5-4.5-10-10-10h-20V207z"/>
			</g>
			<g>
				<path class="st23" d="M710.2,212h-40v-26.7c0-7.4,6-13.3,13.3-13.3h26.7V212z M675.2,207h30v-30h-21.7c-4.6,0-8.3,3.7-8.3,8.3
					V207z"/>
			</g>
			<g>
				<path class="st23" d="M1128.2,212h-40v-40h40V212z M1093.2,207h30v-30h-30V207z"/>
			</g>
			<g>
				<path class="st23" d="M1093.2,212h-388v-40h388V212z M710.2,207h378v-30h-378V207z"/>
			</g>
			<g>
				<g>
					
						<rect x="1142.7" y="182.8" transform="matrix(0.7071 -0.7071 0.7071 0.7071 199.3334 865.2864)" class="st23" width="3" height="18.4"/>
				</g>
				<g>
					
						<rect x="1135" y="190.5" transform="matrix(0.7071 -0.7071 0.7071 0.7071 199.3334 865.2864)" class="st23" width="18.4" height="3"/>
				</g>
			</g>
			<g>
				<rect x="1101.2" y="190.5" class="st23" width="14.5" height="3"/>
			</g>
			<g>
				<rect x="715.2" y="182.5" class="st24" width="366.5" height="19"/>
				<path class="st30" d="M1082.7,202.5H714.2v-21h368.5V202.5z M716.2,200.5h364.5v-17H716.2V200.5z"/>
			</g>
		</g>
		<g>
			<g>
				<path class="st6" d="M677.6,634c3.2-38-4.4-64.8-8.3-75.7c-0.9-2.6-4.5-2.8-5.7-0.3c-9.7,19.4-14.8,77.4-14.8,77.4l20.9,2.5
					l-9.3,78.1c5.7-3.3,8.5-8,8.5-8L677.6,634z"/>
			</g>
			<g>
				
					<rect x="637.8" y="647.2" transform="matrix(0.9929 0.1188 -0.1188 0.9929 96.5703 -70.967)" class="st13" width="12" height="255.3"/>
				<path class="st23" d="M636.8,905.1l-16.9-2l30.9-258.5l16.9,2L636.8,905.1z M625.4,898.7l7,0.8L662.1,651l-7-0.8L625.4,898.7z"
					/>
			</g>
			<g>
				
					<rect x="648.7" y="640.8" transform="matrix(0.9929 0.1188 -0.1188 0.9929 81.1169 -73.7559)" class="st13" width="21.5" height="6"/>
				<path class="st23" d="M672,650.8l-26.3-3.1l1.3-10.9l26.3,3.1L672,650.8z M651.2,643.3l16.4,2l0.1-1l-16.4-2L651.2,643.3z"/>
			</g>
			<g>
				<path class="st23" d="M659.8,725.1l10.2-85.6l7.4,0.9l0.3-2.3c3.2-37.9-4.6-64.8-8.2-74.5c-0.1-0.3-0.3-0.4-0.6-0.4
					c-0.2,0-0.4,0-0.6,0.3c-9.4,18.7-14.5,76-14.6,76.5c-0.1,1.4-1.3,2.4-2.7,2.3c-1.4-0.1-2.4-1.3-2.3-2.7
					c0.2-2.4,5.3-58.7,15.1-78.3c1-2,3.1-3.2,5.4-3.1c2.3,0.1,4.2,1.6,5,3.7c3.6,10.1,11.7,37.7,8.4,76.7l-0.3,2.4l0.3,0
					c1.4,0.2,2.3,1.4,2.2,2.8c-0.2,1.4-1.4,2.3-2.8,2.2l-0.3,0l-8,67.2l-0.3,0.5c-0.1,0.2-3.2,5.3-9.4,8.9L659.8,725.1z
					 M674.4,645.1l-8.3,69.8c1.5-1.5,2.5-2.8,2.9-3.4l7.9-66.1L674.4,645.1z"/>
			</g>
			<g>
				<path class="st23" d="M629.6,895.2c-0.1,0-0.1,0-0.2,0c-0.8-0.1-1.4-0.8-1.3-1.7l28.7-240c0.1-0.8,0.9-1.4,1.7-1.3
					c0.8,0.1,1.4,0.8,1.3,1.7l-28.7,240C631,894.6,630.3,895.2,629.6,895.2z"/>
			</g>
			<g>
				<path class="st23" d="M671.2,637.3c-0.1,0-0.1,0-0.2,0c-0.8-0.1-1.4-0.8-1.3-1.6c0-0.3,2.8-26.9,2.4-37.1c0-0.8,0.6-1.5,1.4-1.6
					c0.9-0.1,1.5,0.6,1.6,1.4c0.4,10.4-2.3,36.4-2.4,37.5C672.6,636.7,672,637.3,671.2,637.3z"/>
			</g>
		</g>
		<g>
			<polygon class="st13" points="638.4,943.4 659.4,730.1 483.9,730.1 497.4,941.9 			"/>
			<path class="st23" d="M640.6,945.9L495,944.4l-13.8-216.8h180.9l-0.3,2.7L640.6,945.9z M499.7,939.5l136.4,1.4l20.5-208.3H486.6
				L499.7,939.5z"/>
		</g>
		<g>
			<path class="st23" d="M623.3,930.9c-0.1,0-0.2,0-0.3,0c-1.7-0.1-2.9-1.6-2.7-3.2l15-174.7c0.1-1.7,1.6-2.9,3.2-2.7
				c1.7,0.1,2.9,1.6,2.7,3.2l-15,174.7C626.1,929.7,624.8,930.9,623.3,930.9z"/>
		</g>
		<g>
			<path class="st23" d="M1327,948.1H173.4c-2.5,0-4.5-2-4.5-4.5s2-4.5,4.5-4.5H1327c2.5,0,4.5,2,4.5,4.5S1329.5,948.1,1327,948.1z"
				/>
		</g>
		<g id="XMLID_2_">
			<g>
				<path class="st6" d="M533.9,923v3.3c0,4.3-3.5,7.7-7.7,7.7H218.8h-11.1c-1,0-1.9-0.2-2.7-0.5c-0.2-0.7-0.3-1.5-0.3-2.2v-11.1
					v-45.9v-11.1c0-4.3,3.5-7.7,7.7-7.7h296.5h22c1,0,1.9,0.2,2.7,0.5c0.2,0.7,0.3,1.4,0.3,2.2v3.4c0,4.3-3.5,7.7-7.7,7.7H226.5
					c-4.3,0-7.7,3.5-7.7,7.7v30.4c0,3.3,2.1,6.1,5,7.2c1,3.2,3.9,5.5,7.4,5.5h285.4h14.3c1,0,1.9,0.2,2.7,0.5
					C533.8,921.5,533.9,922.3,533.9,923z"/>
				<path class="st6" d="M526.2,850.6c3.5,0,6.5,2.3,7.4,5.5c-0.8-0.3-1.8-0.5-2.7-0.5h-22c3.3,0,6.1-2.1,7.2-5H526.2z"/>
				<path class="st6" d="M526.2,915.3c3.5,0,6.4,2.3,7.4,5.5c-0.8-0.3-1.8-0.5-2.7-0.5h-14.3v-5H526.2z"/>
				<path class="st6" d="M521.2,756v3.4c0,4.3-3.5,7.7-7.7,7.7h-9.3h-298H195c-1,0-1.9-0.2-2.7-0.5c-0.2-0.7-0.3-1.5-0.3-2.2v-11.1
					v-45.9v-11.1c0-4.3,3.5-7.7,7.7-7.7h11.1h307.4c1,0,1.9,0.2,2.7,0.5c0.2,0.7,0.3,1.4,0.3,2.2v3.4c0,4.3-3.5,7.7-7.7,7.7H213.9
					c-4.3,0-7.7,3.5-7.7,7.7v30.4c0,3.3,2.1,6.1,5,7.2c1,3.2,3.9,5.5,7.4,5.5h285.4h14.3c1,0,1.9,0.2,2.7,0.5
					C521.1,754.5,521.2,755.2,521.2,756z"/>
				<path class="st6" d="M513.5,683.5c3.5,0,6.5,2.3,7.4,5.5c-0.9-0.3-1.8-0.5-2.7-0.5H210.8h-11.1c-4.3,0-7.7,3.5-7.7,7.7v11.1
					v45.9v11.1c0,0.8,0.1,1.5,0.3,2.2c-2.9-1.1-5-3.9-5-7.2v-11.1v-45.9v-11.1c0-4.3,3.5-7.7,7.7-7.7h11.1H513.5z"/>
				<path class="st6" d="M513.5,748.2c3.5,0,6.5,2.3,7.4,5.5c-0.9-0.3-1.8-0.5-2.7-0.5h-14.3v-5H513.5z"/>
				<path class="st6" d="M516.6,915.3v5H231.2c-3.5,0-6.5-2.3-7.4-5.5c0.9,0.3,1.8,0.5,2.7,0.5H516.6z"/>
				<path class="st13" d="M223.5,889.1v-6.9c0-4.3,3.5-7.7,7.7-7.7h285.4v40.9h-290c-1,0-1.9-0.2-2.7-0.5c-0.2-0.7-0.3-1.4-0.3-2.2
					V889.1z"/>
				<path class="st6" d="M504.2,850.6h11.9c-1.1,2.9-3.9,5-7.2,5H212.4h-10.9h-1c1.1-2.9,3.9-5,7.2-5H504.2z"/>
				<path class="st29" d="M511.9,839.5v3.3c0,4.3-3.5,7.7-7.7,7.7H207.7h-10.9h-11.1c-1,0-1.9-0.2-2.7-0.5c-0.2-0.7-0.3-1.5-0.3-2.2
					v-11.1v-45.9v-11.1c0-4.3,3.5-7.7,7.7-7.7h9.3h11.1h298c1,0,1.9,0.2,2.7,0.5c0.2,0.7,0.3,1.5,0.3,2.2v3.4c0,4.3-3.5,7.7-7.7,7.7
					H204.5c-4.3,0-7.7,3.5-7.7,7.7V824c0,3.3,2.1,6.1,5,7.2c1,3.2,3.9,5.5,7.4,5.5h285.4h14.3c1,0,1.9,0.2,2.7,0.5
					C511.8,838,511.9,838.7,511.9,839.5z"/>
				<path class="st2" d="M511.4,772.1c0.1,0.2,0.1,0.3,0.2,0.5c-0.9-0.3-1.8-0.5-2.7-0.5H511.4z"/>
				<path class="st29" d="M511.4,772.1h-2.6h-298h-11.1c-3.3,0-6.1-2.1-7.2-5h2.6h11.1h298C507.5,767.1,510.3,769.1,511.4,772.1z"/>
				<path class="st29" d="M504.2,831.8c3.5,0,6.4,2.3,7.4,5.5c-0.9-0.3-1.8-0.5-2.7-0.5h-14.3v-5H504.2z"/>
				<path class="st6" d="M503.9,748.2v5H218.5c-3.5,0-6.4-2.3-7.4-5.5c0.9,0.3,1.8,0.5,2.7,0.5H503.9z"/>
				<path class="st13" d="M210.8,722v-6.9c0-4.3,3.5-7.7,7.7-7.7h285.4v40.9h-290c-1,0-1.9-0.2-2.7-0.5c-0.2-0.7-0.3-1.5-0.3-2.2
					V722z"/>
				<path class="st29" d="M494.6,831.8v5H209.2c-3.5,0-6.5-2.3-7.4-5.5c0.9,0.3,1.8,0.5,2.7,0.5H494.6z"/>
				<path class="st13" d="M201.5,805.5v-6.9c0-4.3,3.5-7.7,7.7-7.7h285.4v40.9h-290c-1,0-1.9-0.2-2.7-0.5c-0.2-0.7-0.3-1.5-0.3-2.2
					V805.5z"/>
				<path class="st6" d="M201.5,855.6h10.9c-4.3,0-7.7,3.5-7.7,7.7v11.1v45.9v11.1c0,0.8,0.1,1.5,0.3,2.2c-2.9-1.1-5-3.9-5-7.2
					v-11.1v-45.9v-11.1c0-1,0.2-1.9,0.5-2.7H201.5z"/>
				<path class="st29" d="M199.7,772.1h-9.3c-4.3,0-7.7,3.5-7.7,7.7v11.1v45.9v11.1c0,0.8,0.1,1.5,0.3,2.2c-2.9-1.1-5-3.9-5-7.2
					v-11.1v-45.9v-11.1c0-4.3,3.5-7.7,7.7-7.7h6.8C193.6,770,196.4,772.1,199.7,772.1z"/>
			</g>
			<g>
				<line class="st14" x1="516.6" y1="874.4" x2="516.6" y2="915.3"/>
				<line class="st14" x1="494.6" y1="790.9" x2="494.6" y2="831.8"/>
				<polyline class="st14" points="503.9,707.3 503.9,748.2 503.9,753.2 				"/>
				<path class="st3" d="M212.4,855.6c-4.3,0-7.7,3.5-7.7,7.7v11.1v45.9v11.1c0,0.8,0.1,1.5,0.3,2.2c1,3.2,3.9,5.5,7.4,5.5h11.1
					h307.4c4.3,0,7.7-3.5,7.7-7.7V928c0-3.3-2.1-6.1-5-7.2c-0.8-0.3-1.8-0.5-2.7-0.5h-14.3H231.2c-3.5,0-6.5-2.3-7.4-5.5
					c-0.2-0.7-0.3-1.4-0.3-2.2v-23.5v-6.9c0-4.3,3.5-7.7,7.7-7.7h285.4h14.3c4.3,0,7.7-3.5,7.7-7.7v-3.4c0-3.3-2.1-6.1-5-7.2
					c-0.8-0.3-1.8-0.5-2.7-0.5h-22"/>
				<line class="st8" x1="223.5" y1="889.1" x2="375.9" y2="889.1"/>
				<line class="st8" x1="299.7" y1="907.1" x2="483.9" y2="907.1"/>
				<path class="st3" d="M199.7,772.1h-9.3c-4.3,0-7.7,3.5-7.7,7.7v11.1v45.9v11.1c0,0.8,0.1,1.5,0.3,2.2c1,3.2,3.9,5.5,7.4,5.5
					h10.1h1h10.9h296.5c3.3,0,6.1-2.1,7.2-5c0.3-0.9,0.5-1.8,0.5-2.7v-3.3c0-3.3-2.1-6.1-5-7.2c-0.9-0.3-1.8-0.5-2.7-0.5h-14.3
					H209.2c-3.5,0-6.5-2.3-7.4-5.5c-0.2-0.7-0.3-1.5-0.3-2.2v-23.5v-6.9c0-4.3,3.5-7.7,7.7-7.7h285.4h14.3c4.3,0,7.7-3.5,7.7-7.7
					v-3.4c0-3.3-2.1-6.1-5-7.2c-0.9-0.3-1.8-0.5-2.7-0.5"/>
				<line class="st8" x1="201.5" y1="805.5" x2="353.9" y2="805.5"/>
				<line class="st8" x1="277.7" y1="823.5" x2="461.9" y2="823.5"/>
				<path class="st3" d="M503.9,707.3h14.3c4.3,0,7.7-3.5,7.7-7.7v-3.4c0-3.3-2.1-6.1-5-7.2c-0.9-0.3-1.8-0.5-2.7-0.5H210.8h-11.1
					c-4.3,0-7.7,3.5-7.7,7.7v11.1v45.9v11.1c0,0.8,0.1,1.5,0.3,2.2c0.1,0.2,0.1,0.3,0.2,0.5c1.1,2.9,3.9,5,7.2,5h11.1h298h2.6h6.8
					c4.3,0,7.7-3.5,7.7-7.7V761c0-3.3-2.1-6.1-5-7.2c-0.9-0.3-1.8-0.5-2.7-0.5h-14.3H218.5c-3.5,0-6.4-2.3-7.4-5.5
					c-0.2-0.7-0.3-1.5-0.3-2.2V722v-6.9c0-4.3,3.5-7.7,7.7-7.7H503.9z"/>
				<line class="st8" x1="210.8" y1="722" x2="363.2" y2="722"/>
				<line class="st8" x1="287" y1="740" x2="471.2" y2="740"/>
			</g>
		</g>
		<g>
			<polygon class="st24" points="849,925 849.7,912.3 827,925 812,925 811.3,912.3 790.5,925 773.1,925 773.1,912.3 751,925 
				703,925 703,943.6 1217,943.6 1217,925 			"/>
			<path class="st23" d="M1217,946.1H703c-1.4,0-2.5-1.1-2.5-2.5V925c0-1.4,1.1-2.5,2.5-2.5h47.3l21.5-12.4c0.8-0.4,1.7-0.4,2.5,0
				s1.2,1.3,1.2,2.2v10.3h14.2l20.2-12.4c0.8-0.5,1.7-0.5,2.5-0.1c0.8,0.4,1.3,1.2,1.3,2.1l0.5,10.4h12l22.1-12.4
				c0.8-0.4,1.8-0.4,2.5,0.1c0.8,0.5,1.2,1.3,1.2,2.3l-0.5,10.1H1217c1.4,0,2.5,1.1,2.5,2.5v18.6
				C1219.5,945,1218.4,946.1,1217,946.1z M705.5,941.1h509v-13.6H849c-0.7,0-1.3-0.3-1.8-0.8c-0.5-0.5-0.7-1.2-0.7-1.9l0.4-8.2
				l-18.7,10.5c-0.4,0.2-0.8,0.3-1.2,0.3h-15c-1.3,0-2.4-1-2.5-2.4l-0.4-8.6l-17.3,10.6c-0.4,0.2-0.8,0.4-1.3,0.4h-17.4
				c-1.4,0-2.5-1.1-2.5-2.5v-8.4l-18.4,10.6c-0.4,0.2-0.8,0.3-1.2,0.3h-45.5V941.1z"/>
		</g>
		<g>
			
				<rect x="705" y="889.1" transform="matrix(0.991 0.1337 -0.1337 0.991 128.7437 -120.5514)" class="st24" width="514" height="18.6"/>
			<path class="st23" d="M1217.6,944.7l-514.3-69.4l3.2-23.4l514.3,69.4L1217.6,944.7z M708.9,871.1l504.4,68.1l1.8-13.5
				l-504.4-68.1L708.9,871.1z"/>
		</g>
		<g>
			<path class="st24" d="M1180.8,889.9l-458.9-61.9c-6.9-0.9-13.2,3.9-14.1,10.8v0c-0.9,6.9,3.9,13.2,10.8,14.1l458.9,61.9
				c6.9,0.9,13.2-3.9,14.1-10.8v0C1192.5,897.1,1187.7,890.8,1180.8,889.9z"/>
			<path class="st23" d="M1179.2,917.4c-0.7,0-1.4,0-2-0.1l-458.9-61.9c-8.2-1.1-14-8.7-12.9-17c1.1-8.2,8.7-14,17-12.9l458.9,61.9
				c4,0.5,7.5,2.6,10,5.8c2.4,3.2,3.5,7.2,3,11.2c-0.5,4-2.6,7.5-5.8,10C1185.6,916.3,1182.5,917.4,1179.2,917.4z M720.2,830.3
				c-5,0-9.3,3.7-10,8.7c-0.7,5.5,3.1,10.6,8.6,11.3l458.9,61.9c2.7,0.4,5.3-0.3,7.5-2c2.1-1.6,3.5-4,3.9-6.7c0.4-2.7-0.3-5.3-2-7.5
				c-1.6-2.1-4-3.5-6.7-3.9l-458.9-61.9C721.1,830.4,720.6,830.3,720.2,830.3z"/>
		</g>
		<g>
			<path class="st24" d="M728.6,350.1l-20.8,488.4c-0.3,6.9,5.1,12.8,12,13.1l0,0c6.9,0.3,12.8-5.1,13.1-12l20.8-488.4
				c0.3-6.9-5.1-12.8-12-13.1l0,0C734.7,337.7,728.9,343.1,728.6,350.1z"/>
			<path class="st23" d="M720.3,854.1c-0.2,0-0.4,0-0.7,0c-4-0.2-7.7-1.9-10.5-4.9c-2.7-3-4.1-6.8-4-10.8L726.1,350l2.5,0.1
				l-2.5-0.1c0.2-4,1.9-7.7,4.9-10.5c3-2.7,6.8-4.1,10.8-4c8.3,0.4,14.8,7.4,14.4,15.7l-20.8,488.4c-0.2,4-1.9,7.7-4.9,10.5
				C727.7,852.7,724.1,854.1,720.3,854.1z M741.1,340.5c-2.5,0-4.9,0.9-6.8,2.7c-2,1.8-3.1,4.3-3.3,7l-20.8,488.4
				c-0.1,2.7,0.8,5.3,2.6,7.2s4.3,3.1,7,3.3c2.7,0.1,5.3-0.8,7.2-2.6c2-1.8,3.1-4.3,3.3-7L751.2,351c0.2-5.6-4.1-10.3-9.6-10.5
				C741.4,340.5,741.3,340.5,741.1,340.5z"/>
		</g>
		<g>
			<circle class="st24" cx="721.6" cy="837.1" r="14.1"/>
			<path class="st23" d="M721.6,853.7c-9.2,0-16.6-7.4-16.6-16.6s7.4-16.6,16.6-16.6s16.6,7.4,16.6,16.6S730.7,853.7,721.6,853.7z
				 M721.6,825.5c-6.4,0-11.6,5.2-11.6,11.6s5.2,11.6,11.6,11.6s11.6-5.2,11.6-11.6S728,825.5,721.6,825.5z"/>
		</g>
		<g>
			<path class="st24" d="M843.6,844.1l-15.3-2.1c-2.5-0.3-4.3-2.6-3.9-5.1v0c0.3-2.5,2.6-4.3,5.1-3.9l15.3,2.1
				c2.5,0.3,4.3,2.6,3.9,5.1l0,0C848.4,842.6,846.1,844.4,843.6,844.1z"/>
			<path class="st23" d="M844.2,846.1c-0.3,0-0.6,0-0.9-0.1L828,844c-1.7-0.2-3.3-1.1-4.3-2.5c-1.1-1.4-1.5-3.1-1.3-4.9
				s1.1-3.3,2.5-4.3c1.4-1.1,3.1-1.5,4.9-1.3l15.3,2.1c3.6,0.5,6.1,3.8,5.6,7.4C850.2,843.7,847.4,846.1,844.2,846.1z M828.9,834.9
				c-0.6,0-1.1,0.2-1.6,0.5c-0.5,0.4-0.9,1-1,1.7c-0.1,0.7,0.1,1.4,0.5,1.9s1,0.9,1.7,1l15.3,2.1c1.4,0.2,2.7-0.8,2.9-2.2
				c0.2-1.4-0.8-2.7-2.2-2.9l-15.3-2.1C829.1,834.9,829,834.9,828.9,834.9z"/>
		</g>
		<g>
			<path class="st24" d="M893.2,850.8l-15.3-2.1c-2.5-0.3-4.3-2.6-3.9-5.1l0,0c0.3-2.5,2.6-4.3,5.1-3.9l15.3,2.1
				c2.5,0.3,4.3,2.6,3.9,5.1l0,0C898.1,849.3,895.7,851.1,893.2,850.8z"/>
			<path class="st23" d="M893.9,852.8c-0.3,0-0.6,0-0.9-0.1l-15.3-2.1c-3.6-0.5-6.1-3.8-5.6-7.4c0.5-3.6,3.8-6.1,7.4-5.6l15.3,2.1
				c1.7,0.2,3.3,1.1,4.3,2.5c1.1,1.4,1.5,3.1,1.3,4.9s-1.1,3.3-2.5,4.3C896.7,852.3,895.3,852.8,893.9,852.8z M878.5,841.6
				c-1.3,0-2.4,0.9-2.5,2.2c-0.2,1.4,0.8,2.7,2.2,2.9l15.3,2.1c0.7,0.1,1.4-0.1,1.9-0.5c0.5-0.4,0.9-1,1-1.7
				c0.1-0.7-0.1-1.4-0.5-1.9c-0.4-0.5-1-0.9-1.7-1l-15.3-2.1C878.8,841.6,878.6,841.6,878.5,841.6z"/>
		</g>
		<g>
			<path class="st24" d="M921.2,854.5l-15.3-2.1c-2.5-0.3-4.3-2.6-3.9-5.1v0c0.3-2.5,2.6-4.3,5.1-3.9l15.3,2.1
				c2.5,0.3,4.3,2.6,3.9,5.1v0C926,853.1,923.7,854.9,921.2,854.5z"/>
			<path class="st23" d="M921.8,856.6c-0.3,0-0.6,0-0.9-0.1l-15.3-2.1c-1.7-0.2-3.3-1.1-4.3-2.5c-1.1-1.4-1.5-3.1-1.3-4.9
				s1.1-3.3,2.5-4.3c1.4-1.1,3.1-1.5,4.9-1.3l15.3,2.1c3.6,0.5,6.1,3.8,5.6,7.4C927.9,854.2,925.1,856.6,921.8,856.6z M906.5,845.4
				c-0.6,0-1.1,0.2-1.6,0.5c-0.5,0.4-0.9,1-1,1.7c-0.1,0.7,0.1,1.4,0.5,1.9s1,0.9,1.7,1l15.3,2.1c1.4,0.2,2.7-0.8,2.9-2.2
				c0.2-1.4-0.8-2.7-2.2-2.9l-15.3-2.1C906.7,845.4,906.6,845.4,906.5,845.4z"/>
		</g>
		<g>
			<path class="st24" d="M947.8,858.1l-15.3-2.1c-2.5-0.3-4.3-2.6-3.9-5.1l0,0c0.3-2.5,2.6-4.3,5.1-3.9l15.3,2.1
				c2.5,0.3,4.3,2.6,3.9,5.1l0,0C952.6,856.7,950.3,858.5,947.8,858.1z"/>
			<path class="st23" d="M948.5,860.2c-0.3,0-0.6,0-0.9-0.1l-15.3-2.1c-3.6-0.5-6.1-3.8-5.6-7.4c0.5-3.6,3.8-6.1,7.4-5.6l15.3,2.1
				c1.7,0.2,3.3,1.1,4.3,2.5c1.1,1.4,1.5,3.1,1.3,4.9s-1.1,3.3-2.5,4.3C951.3,859.7,949.9,860.2,948.5,860.2z M948.1,856.1
				c0.7,0.1,1.4-0.1,1.9-0.5c0.5-0.4,0.9-1,1-1.7c0.1-0.7-0.1-1.4-0.5-1.9s-1-0.9-1.7-1l-15.3-2.1c-1.4-0.2-2.7,0.8-2.9,2.2
				c-0.2,1.4,0.8,2.7,2.2,2.9L948.1,856.1z"/>
		</g>
		<g>
			<path class="st24" d="M974.6,861.7l-15.3-2.1c-2.5-0.3-4.3-2.6-3.9-5.1l0,0c0.3-2.5,2.6-4.3,5.1-3.9l15.3,2.1
				c2.5,0.3,4.3,2.6,3.9,5.1l0,0C979.4,860.3,977.1,862.1,974.6,861.7z"/>
			<path class="st23" d="M975.2,863.8c-0.3,0-0.6,0-0.9-0.1l-15.3-2.1c-3.6-0.5-6.1-3.8-5.6-7.4c0.5-3.6,3.8-6.1,7.4-5.6l15.3,2.1
				c1.7,0.2,3.3,1.1,4.3,2.5c1.1,1.4,1.5,3.1,1.3,4.9s-1.1,3.3-2.5,4.3C978,863.3,976.7,863.8,975.2,863.8z M959.9,852.6
				c-1.3,0-2.4,0.9-2.5,2.2c-0.2,1.4,0.8,2.7,2.2,2.9l15.3,2.1c0.7,0.1,1.4-0.1,1.9-0.5c0.5-0.4,0.9-1,1-1.7
				c0.1-0.7-0.1-1.4-0.5-1.9c-0.4-0.5-1-0.9-1.7-1l-15.3-2.1C960.1,852.6,960,852.6,959.9,852.6z"/>
		</g>
		<g>
			<path class="st24" d="M1001.7,865.4l-15.3-2.1c-2.5-0.3-4.3-2.6-3.9-5.1l0,0c0.3-2.5,2.6-4.3,5.1-3.9l15.3,2.1
				c2.5,0.3,4.3,2.6,3.9,5.1l0,0C1006.5,864,1004.2,865.7,1001.7,865.4z"/>
			<path class="st23" d="M1002.3,867.4c-0.3,0-0.6,0-0.9-0.1l-15.3-2.1c-1.7-0.2-3.3-1.1-4.3-2.5c-1.1-1.4-1.5-3.1-1.3-4.9
				s1.1-3.3,2.5-4.3c1.4-1.1,3.1-1.5,4.9-1.3l15.3,2.1c3.6,0.5,6.1,3.8,5.6,7.4C1008.3,865,1005.5,867.4,1002.3,867.4z
				 M1001.9,863.4c1.4,0.2,2.7-0.8,2.9-2.2c0.2-1.4-0.8-2.7-2.2-2.9l-15.3-2.1c-0.7-0.1-1.4,0.1-1.9,0.5c-0.5,0.4-0.9,1-1,1.7
				c-0.1,0.7,0.1,1.4,0.5,1.9c0.4,0.5,1,0.9,1.7,1L1001.9,863.4z"/>
		</g>
		<g>
			
				<rect x="1192.3" y="894.8" transform="matrix(0.991 0.1337 -0.1337 0.991 132.0078 -151.7036)" class="st24" width="6.7" height="24.6"/>
			<path class="st23" d="M1199,921.9l-10.6-1.4l3.8-28.3l10.6,1.4L1199,921.9z M1192.9,917.1l2.6,0.4l2.8-20.4l-2.6-0.4
				L1192.9,917.1z"/>
		</g>
		<g>
			<g>
				<rect x="216.5" y="397.6" class="st30" width="38.5" height="3"/>
			</g>
			<g>
				<rect x="342" y="397.6" class="st30" width="38.5" height="3"/>
			</g>
			<g>
				<rect x="258" y="397.6" class="st30" width="19.3" height="3"/>
			</g>
			<g>
				<rect x="288.5" y="397.6" class="st30" width="19.3" height="3"/>
			</g>
			<g>
				<rect x="310.7" y="397.6" class="st30" width="19.3" height="3"/>
			</g>
			<g>
				<rect x="408.9" y="397.6" class="st30" width="9.6" height="3"/>
			</g>
			<g>
				<rect x="387.7" y="397.6" class="st30" width="19.3" height="3"/>
			</g>
		</g>
		<g>
			<g>
				<rect x="465" y="340.6" class="st30" width="38.5" height="3"/>
			</g>
			<g>
				<rect x="339.5" y="340.6" class="st30" width="38.5" height="3"/>
			</g>
			<g>
				<rect x="216.5" y="340.6" class="st30" width="38.5" height="3"/>
			</g>
			<g>
				<rect x="442.7" y="340.6" class="st30" width="19.3" height="3"/>
			</g>
			<g>
				<rect x="412.2" y="340.6" class="st30" width="19.3" height="3"/>
			</g>
			<g>
				<rect x="390" y="340.6" class="st30" width="19.3" height="3"/>
			</g>
			<g>
				<rect x="257.5" y="340.6" class="st30" width="19.3" height="3"/>
			</g>
			<g>
				<rect x="301.5" y="340.6" class="st30" width="9.6" height="3"/>
			</g>
			<g>
				<rect x="286" y="340.6" class="st30" width="9.6" height="3"/>
			</g>
			<g>
				<rect x="313" y="340.6" class="st30" width="19.3" height="3"/>
			</g>
		</g>
		<g>
			<g>
				<rect x="216.5" y="359.6" class="st30" width="38.5" height="3"/>
			</g>
			<g>
				<rect x="257.5" y="359.6" class="st30" width="19.3" height="3"/>
			</g>
			<g>
				<rect x="286" y="359.6" class="st30" width="9.6" height="3"/>
			</g>
		</g>
		<g>
			<g>
				<rect x="465" y="378.6" class="st30" width="38.5" height="3"/>
			</g>
			<g>
				<rect x="339.5" y="378.6" class="st30" width="38.5" height="3"/>
			</g>
			<g>
				<rect x="216.5" y="378.6" class="st30" width="38.5" height="3"/>
			</g>
			<g>
				<rect x="442.7" y="378.6" class="st30" width="19.3" height="3"/>
			</g>
			<g>
				<rect x="412.2" y="378.6" class="st30" width="19.3" height="3"/>
			</g>
			<g>
				<rect x="390" y="378.6" class="st30" width="19.3" height="3"/>
			</g>
			<g>
				<rect x="257.5" y="378.6" class="st30" width="19.3" height="3"/>
			</g>
			<g>
				<rect x="301.5" y="378.6" class="st30" width="9.6" height="3"/>
			</g>
			<g>
				<rect x="286" y="378.6" class="st30" width="9.6" height="3"/>
			</g>
			<g>
				<rect x="313" y="378.6" class="st30" width="19.3" height="3"/>
			</g>
		</g>
		<g>
			<g>
				<path class="st24" d="M595.2,450H134.8c-7.6,0-13.8-6.2-13.8-13.8V117.8c0-7.6,6.2-13.8,13.8-13.8h460.3
					c7.6,0,13.8,6.2,13.8,13.8v318.3C609,443.8,602.8,450,595.2,450z"/>
				<path class="st23" d="M595.2,452.5H134.8c-9,0-16.3-7.3-16.3-16.3V117.8c0-9,7.3-16.3,16.3-16.3h460.3c9,0,16.3,7.3,16.3,16.3
					v318.3C611.5,445.2,604.2,452.5,595.2,452.5z M134.8,106.5c-6.3,0-11.3,5.1-11.3,11.3v318.3c0,6.2,5.1,11.3,11.3,11.3h460.3
					c6.2,0,11.3-5.1,11.3-11.3V117.8c0-6.2-5.1-11.3-11.3-11.3H134.8z"/>
			</g>
			<g>
				<path class="st6" d="M570,98.5h-35H152h-20.4c-8.1,0-14.6,6.5-14.6,14.6v20.4h35h383h35h35v-18.4c0-9.2-7.4-16.6-16.6-16.6H570z
					"/>
			</g>
			<g>
				<rect x="171.5" y="198.5" class="st13" width="377" height="251.5"/>
				<path class="st23" d="M550,451.5H170V197h380V451.5z M173,448.5h374V200H173V448.5z"/>
			</g>
			<g>
				<g>
					<rect x="308.5" y="244.1" class="st31" width="61.5" height="3"/>
				</g>
				<g>
					<rect x="376" y="244.1" class="st31" width="35.5" height="3"/>
				</g>
			</g>
			<g>
				<g>
					<rect x="216.5" y="283.6" class="st31" width="38.5" height="3"/>
				</g>
				<g>
					<rect x="342" y="283.6" class="st31" width="38.5" height="3"/>
				</g>
				<g>
					<rect x="465" y="283.6" class="st31" width="38.5" height="3"/>
				</g>
				<g>
					<rect x="258" y="283.6" class="st31" width="19.3" height="3"/>
				</g>
				<g>
					<rect x="288.5" y="283.6" class="st31" width="19.3" height="3"/>
				</g>
				<g>
					<rect x="310.7" y="283.6" class="st31" width="19.3" height="3"/>
				</g>
				<g>
					<rect x="443.2" y="283.6" class="st31" width="19.3" height="3"/>
				</g>
				<g>
					<rect x="408.9" y="283.6" class="st31" width="9.6" height="3"/>
				</g>
				<g>
					<rect x="424.4" y="283.6" class="st31" width="9.6" height="3"/>
				</g>
				<g>
					<rect x="387.7" y="283.6" class="st31" width="19.3" height="3"/>
				</g>
			</g>
			<g>
				<g>
					<rect x="465" y="302.6" class="st31" width="38.5" height="3"/>
				</g>
				<g>
					<rect x="339.5" y="302.6" class="st31" width="38.5" height="3"/>
				</g>
				<g>
					<rect x="216.5" y="302.6" class="st31" width="38.5" height="3"/>
				</g>
				<g>
					<rect x="442.7" y="302.6" class="st31" width="19.3" height="3"/>
				</g>
				<g>
					<rect x="412.2" y="302.6" class="st31" width="19.3" height="3"/>
				</g>
				<g>
					<rect x="390" y="302.6" class="st31" width="19.3" height="3"/>
				</g>
				<g>
					<rect x="257.5" y="302.6" class="st31" width="19.3" height="3"/>
				</g>
				<g>
					<rect x="301.5" y="302.6" class="st31" width="9.6" height="3"/>
				</g>
				<g>
					<rect x="286" y="302.6" class="st31" width="9.6" height="3"/>
				</g>
				<g>
					<rect x="313" y="302.6" class="st31" width="19.3" height="3"/>
				</g>
			</g>
			<g>
				<g>
					<rect x="465" y="321.6" class="st31" width="38.5" height="3"/>
				</g>
				<g>
					<rect x="339.5" y="321.6" class="st31" width="38.5" height="3"/>
				</g>
				<g>
					<rect x="216.5" y="321.6" class="st31" width="38.5" height="3"/>
				</g>
				<g>
					<rect x="442.7" y="321.6" class="st31" width="19.3" height="3"/>
				</g>
				<g>
					<rect x="412.2" y="321.6" class="st31" width="19.3" height="3"/>
				</g>
				<g>
					<rect x="390" y="321.6" class="st31" width="19.3" height="3"/>
				</g>
				<g>
					<rect x="257.5" y="321.6" class="st31" width="19.3" height="3"/>
				</g>
				<g>
					<rect x="301.5" y="321.6" class="st31" width="9.6" height="3"/>
				</g>
				<g>
					<rect x="286" y="321.6" class="st31" width="9.6" height="3"/>
				</g>
				<g>
					<rect x="313" y="321.6" class="st31" width="19.3" height="3"/>
				</g>
			</g>
			<g>
				<path class="st23" d="M608,141.5h-33c-1.9,0-3.5-1.6-3.5-3.5v-33c0-1.9,1.6-3.5,3.5-3.5h20.8c8.6,0,15.7,7,15.7,15.7V138
					C611.5,139.9,609.9,141.5,608,141.5z M576.5,136.5h30v-19.3c0-5.9-4.8-10.7-10.7-10.7h-19.3V136.5z"/>
			</g>
			<g>
				<path class="st23" d="M158.5,141.5h-40v-26.7c0-7.4,6-13.3,13.3-13.3h26.7V141.5z M123.5,136.5h30v-30h-21.7
					c-4.6,0-8.3,3.7-8.3,8.3V136.5z"/>
			</g>
			<g>
				<path class="st23" d="M576.5,141.5h-40v-40h40V141.5z M541.5,136.5h30v-30h-30V136.5z"/>
			</g>
			<g>
				<path class="st23" d="M541.5,141.5h-388v-40h388V141.5z M158.5,136.5h378v-30h-378V136.5z"/>
			</g>
			<g>
				<g>
					
						<rect x="591" y="112.3" transform="matrix(0.7071 -0.7071 0.7071 0.7071 87.6255 454.547)" class="st23" width="3" height="18.4"/>
				</g>
				<g>
					
						<rect x="583.3" y="120" transform="matrix(0.7071 -0.7071 0.7071 0.7071 87.6255 454.547)" class="st23" width="18.4" height="3"/>
				</g>
			</g>
			<g>
				<rect x="549.5" y="120" class="st23" width="14.5" height="3"/>
			</g>
			<g>
				<rect x="163.5" y="112" class="st24" width="366.5" height="19"/>
				<path class="st23" d="M531,132H162.5v-21H531V132z M164.5,130H529v-17H164.5V130z"/>
			</g>
			<g>
				<circle class="st21" cx="149.2" cy="168.8" r="13"/>
			</g>
			<g>
				<path class="st23" d="M151.5,186c-8,0-14.5-6.5-14.5-14.5s6.5-14.5,14.5-14.5s14.5,6.5,14.5,14.5S159.5,186,151.5,186z
					 M151.5,160c-6.3,0-11.5,5.2-11.5,11.5s5.2,11.5,11.5,11.5s11.5-5.2,11.5-11.5S157.8,160,151.5,160z"/>
			</g>
		</g>
		<g>
			<path class="st23" d="M776.4,926.8c-0.4,0-0.7,0-1.1-0.1c-2.1-0.6-3.4-2.8-2.8-4.9l10.1-36c0.6-2.1,2.8-3.4,4.9-2.8
				c2.1,0.6,3.4,2.8,2.8,4.9l-10.1,36C779.8,925.7,778.2,926.8,776.4,926.8z"/>
		</g>
		<g>
			<path class="st6" d="M1172.9,895l-447.5-60.4l20.4-478.3c0.3-6.9-5.1-12.8-12-13.1h0c-6.9-0.3-12.8,5.1-13.1,12l-20.8,488.4
				c0,0.1,0,0.2,0,0.3c-0.9,6.9,3.9,13.2,10.8,14.1l458.9,61.9c6.9,0.9,13.2-3.9,14.1-10.8C1184.6,902.3,1179.8,895.9,1172.9,895z"
				/>
		</g>
		<g>
			<path class="st23" d="M1179.2,917.4c-0.7,0-1.4,0-2-0.1l-458.9-61.9c-8.2-1.1-14-8.7-12.9-17c1.1-8.2,8.7-14,17-12.9l458.9,61.9
				c4,0.5,7.5,2.6,10,5.8c2.4,3.2,3.5,7.2,3,11.2c-0.5,4-2.6,7.5-5.8,10C1185.6,916.3,1182.5,917.4,1179.2,917.4z M720.2,830.3
				c-5,0-9.3,3.7-10,8.7c-0.7,5.5,3.1,10.6,8.6,11.3l458.9,61.9c2.7,0.4,5.3-0.3,7.5-2c2.1-1.6,3.5-4,3.9-6.7c0.4-2.7-0.3-5.3-2-7.5
				c-1.6-2.1-4-3.5-6.7-3.9l-458.9-61.9C721.1,830.4,720.6,830.3,720.2,830.3z"/>
		</g>
		<g>
			<path class="st23" d="M720.3,853.1c-0.2,0-0.4,0-0.7,0c-4-0.2-7.7-1.9-10.5-4.9c-2.7-3-4.1-6.8-4-10.8L726.1,349
				c0.4-8.3,7.4-14.8,15.7-14.4c4,0.2,7.7,1.9,10.5,4.9c2.7,3,4.1,6.8,4,10.8l-20.8,488.4c-0.2,4-1.9,7.7-4.9,10.5
				C727.7,851.7,724.1,853.1,720.3,853.1z M728.6,349.1l2.5,0.1l-20.8,488.4c-0.1,2.7,0.8,5.3,2.6,7.2s4.3,3.1,7,3.3
				c2.7,0.1,5.3-0.8,7.2-2.6c2-1.8,3.1-4.3,3.3-7l20.8-488.4c0.1-2.7-0.8-5.3-2.6-7.2s-4.3-3.1-7-3.3c-5.6-0.2-10.3,4.1-10.5,9.6
				L728.6,349.1z"/>
		</g>
		<g>
			<circle class="st24" cx="720.9" cy="837.4" r="15.8"/>
			<path class="st23" d="M720.9,855.7c-10.1,0-18.3-8.2-18.3-18.3s8.2-18.3,18.3-18.3c10.1,0,18.3,8.2,18.3,18.3
				S731,855.7,720.9,855.7z M720.9,824.1c-7.3,0-13.3,6-13.3,13.3c0,7.3,6,13.3,13.3,13.3c7.3,0,13.3-6,13.3-13.3
				C734.2,830.1,728.2,824.1,720.9,824.1z"/>
		</g>
		<g>
			<g id="XMLID_3_">
				<g>
					<path class="st23" d="M1193.9,308.9l-9.3,21.9l-37.5,12.4l-9.4-9.3l12.5-37.4l21.8-9.4L1193.9,308.9z M1181.3,327.1l7.4-17.2
						l-17.6-17.6l-17.3,7.4l-10.9,33.1l1.1,1.2l19.5-19.4c-1.3-2.5-0.9-5.5,1.2-7.5c2.6-2.6,6.8-2.6,9.4,0c2.6,2.6,2.6,6.7,0,9.3
						c-2,2.1-5.1,2.6-7.5,1.4l-19.4,19.2l1.2,1.2L1181.3,327.1z"/>
					<path class="st24" d="M1188.7,309.9l-7.4,17.2l-33.1,11l-1.2-1.2l19.4-19.2c2.4,1.2,5.5,0.7,7.5-1.4c2.6-2.6,2.6-6.7,0-9.3
						c-2.6-2.6-6.8-2.6-9.4,0c-2,2-2.5,5-1.2,7.5l-19.5,19.4l-1.1-1.2l10.9-33.1l17.3-7.4L1188.7,309.9z"/>
				</g>
			</g>
			<g>
				<g>
					<polygon class="st25" points="1180.2,272.6 1208.4,300.6 1199,303.8 1177.1,281.9 					"/>
				</g>
				<g>
					<path class="st26" d="M1148.3,336.4l-1.2-1.2l19.4-19.3c2.4,1.2,5.5,0.7,7.5-1.4c2.6-2.6,2.6-6.7,0-9.3c-2.6-2.6-6.8-2.6-9.4,0
						c-2,2-2.5,5-1.2,7.5l-19.5,19.4l-1.1-1.2l10.9-33.1l17.3-7.4l17.7,17.7l-7.4,17.2L1148.3,336.4z"/>
				</g>
				<g>
					<path class="st25" d="M1172,287l-21.8,9.4l-12.5,37.4l9.4,9.3l37.6-12.4l9.3-21.9L1172,287z M1181.3,327.1l-33.1,11l-1.2-1.2
						l19.4-19.3c2.4,1.2,5.5,0.7,7.5-1.4c2.6-2.6,2.6-6.7,0-9.3c-2.6-2.6-6.8-2.6-9.4,0c-2,2-2.5,5-1.2,7.5l-19.5,19.4l-1.1-1.2
						l10.9-33.1l17.3-7.4l17.7,17.7L1181.3,327.1z"/>
				</g>
			</g>
		</g>
		<g>
			<circle class="st29" cx="121" cy="699.5" r="33.3"/>
		</g>
		<g>
			<circle class="st29" cx="471.2" cy="456.7" r="15.2"/>
		</g>
		<g>
			<circle class="st6" cx="976.8" cy="670.4" r="15.2"/>
		</g>
		<g>
			<circle class="st6" cx="666.9" cy="468" r="6.8"/>
		</g>
		<g>
			<circle class="st29" cx="1208.4" cy="181.8" r="28"/>
		</g>
		<g>
			<g>
				<polygon class="st24" points="1253.8,74.5 1203.9,74.5 1203.9,168.5 1277.7,168.5 1277.7,98.4 				"/>
				<path class="st23" d="M1280.2,171h-78.9V72h53.5l25.4,25.4V171z M1206.4,166h68.9V99.5L1252.8,77h-46.4V166z"/>
			</g>
			<g>
				<polygon class="st23" points="1277.7,102.4 1251.3,102.4 1251.3,74.5 1256.3,74.5 1256.3,97.4 1277.7,97.4 				"/>
			</g>
			<g>
				<path class="st23" d="M1259.7,114.4h-37.5c-1.4,0-2.5-1.1-2.5-2.5s1.1-2.5,2.5-2.5h37.5c1.4,0,2.5,1.1,2.5,2.5
					S1261.1,114.4,1259.7,114.4z"/>
			</g>
			<g>
				<path class="st23" d="M1259.7,126.4h-37.5c-1.4,0-2.5-1.1-2.5-2.5s1.1-2.5,2.5-2.5h37.5c1.4,0,2.5,1.1,2.5,2.5
					S1261.1,126.4,1259.7,126.4z"/>
			</g>
			<g>
				<path class="st23" d="M1259.7,138.4h-37.5c-1.4,0-2.5-1.1-2.5-2.5s1.1-2.5,2.5-2.5h37.5c1.4,0,2.5,1.1,2.5,2.5
					S1261.1,138.4,1259.7,138.4z"/>
			</g>
		</g>
		<g>
			<g>
				<polygon class="st24" points="194.5,511.1 144.5,511.1 144.5,605.1 218.4,605.1 218.4,535 				"/>
				<path class="st23" d="M220.9,607.6H142v-99h53.5l25.4,25.4V607.6z M147,602.6h68.9V536l-22.4-22.4H147V602.6z"/>
			</g>
			<g>
				<polygon class="st23" points="218.4,539 192,539 192,511.1 197,511.1 197,534 218.4,534 				"/>
			</g>
			<g>
				<path class="st23" d="M200.4,551h-37.5c-1.4,0-2.5-1.1-2.5-2.5s1.1-2.5,2.5-2.5h37.5c1.4,0,2.5,1.1,2.5,2.5S201.8,551,200.4,551
					z"/>
			</g>
			<g>
				<path class="st23" d="M200.4,563h-37.5c-1.4,0-2.5-1.1-2.5-2.5s1.1-2.5,2.5-2.5h37.5c1.4,0,2.5,1.1,2.5,2.5S201.8,563,200.4,563
					z"/>
			</g>
			<g>
				<path class="st23" d="M200.4,575h-37.5c-1.4,0-2.5-1.1-2.5-2.5s1.1-2.5,2.5-2.5h37.5c1.4,0,2.5,1.1,2.5,2.5S201.8,575,200.4,575
					z"/>
			</g>
		</g>
		<g>
			<g>
				<polygon class="st24" points="205,503.3 155,503.3 155,597.2 228.9,597.2 228.9,527.2 				"/>
				<path class="st23" d="M231.4,599.7h-78.9v-99H206l25.4,25.4V599.7z M157.5,594.7h68.9v-66.5L204,505.8h-46.4V594.7z"/>
			</g>
			<g>
				<polygon class="st23" points="228.9,531.2 202.5,531.2 202.5,503.3 207.5,503.3 207.5,526.2 228.9,526.2 				"/>
			</g>
			<g>
				<path class="st23" d="M210.9,543.2h-37.5c-1.4,0-2.5-1.1-2.5-2.5s1.1-2.5,2.5-2.5h37.5c1.4,0,2.5,1.1,2.5,2.5
					S212.3,543.2,210.9,543.2z"/>
			</g>
			<g>
				<path class="st23" d="M210.9,555.2h-37.5c-1.4,0-2.5-1.1-2.5-2.5s1.1-2.5,2.5-2.5h37.5c1.4,0,2.5,1.1,2.5,2.5
					S212.3,555.2,210.9,555.2z"/>
			</g>
			<g>
				<path class="st23" d="M210.9,567.2h-37.5c-1.4,0-2.5-1.1-2.5-2.5s1.1-2.5,2.5-2.5h37.5c1.4,0,2.5,1.1,2.5,2.5
					S212.3,567.2,210.9,567.2z"/>
			</g>
		</g>
		<g>
			<g>
				<polygon class="st24" points="215.5,495.4 165.6,495.4 165.6,589.4 239.4,589.4 239.4,519.3 				"/>
				<path class="st23" d="M241.9,591.9h-78.9v-99h53.5l25.4,25.4V591.9z M168.1,586.9h68.9v-66.5l-22.4-22.4h-46.4V586.9z"/>
			</g>
			<g>
				<polygon class="st23" points="239.4,523.3 213,523.3 213,495.4 218,495.4 218,518.3 239.4,518.3 				"/>
			</g>
			<g>
				<path class="st23" d="M221.4,535.3h-37.5c-1.4,0-2.5-1.1-2.5-2.5s1.1-2.5,2.5-2.5h37.5c1.4,0,2.5,1.1,2.5,2.5
					S222.8,535.3,221.4,535.3z"/>
			</g>
			<g>
				<path class="st23" d="M221.4,547.3h-37.5c-1.4,0-2.5-1.1-2.5-2.5s1.1-2.5,2.5-2.5h37.5c1.4,0,2.5,1.1,2.5,2.5
					S222.8,547.3,221.4,547.3z"/>
			</g>
			<g>
				<path class="st23" d="M221.4,559.3h-37.5c-1.4,0-2.5-1.1-2.5-2.5s1.1-2.5,2.5-2.5h37.5c1.4,0,2.5,1.1,2.5,2.5
					S222.8,559.3,221.4,559.3z"/>
			</g>
		</g>
		<g>
			<path class="st13" d="M1242,315.9c-64.7,68.7-21.6,251.4,70.8,273s162.1-56.1,161-98.4c0,0,40.6,16.7,62.5-32.4
				c21.9-49.1-23.5-99.4-66.4-58.6c0,0-13.9-85.7-49.5-111.5C1384.9,262.3,1290.4,275,1242,315.9z"/>
		</g>
		<g>
			<path class="st29" d="M1188.7,372.5c0,0,15.2,30.2,82.1,19.9c48.7-7.5,77.7-70.9,77.7-70.9s3.9,28.5,28,31
				c24.1,2.5,45.4,8.6,45.4,8.6s26.7,44.8,39,42.5s18-11.5,18-11.5s3.4-105.3-62.7-107c-14.8-0.4-10.3-10.4-10.3-10.4
				s-58.2-59.5-148.1-2.1c0,0-38.9,38.8-44.4,70.6S1188.7,372.5,1188.7,372.5z"/>
		</g>
		<g>
			<path class="st13" d="M1472.2,468c0,0,27.9,103.6,31.7,118.7s58.5,58.8,85.1,87.5c26.6,28.6-240,97.8-251.3,94.9
				c-11.4-2.9,1.7-79.7,43.1-135.4c0,0-1.5-47.7-16.6-86.8C1349,507.7,1472.2,468,1472.2,468z"/>
		</g>
		<g>
			<path class="st6" d="M1331.3,730.3c-7.7,45.3,22.4,113.9,46.7,146.9s-44.5,121.8-43.9,177.7h322.3c0,0,66.4-301.6-111.4-432.6
				C1397.7,513.7,1331.3,730.3,1331.3,730.3z"/>
		</g>
		<g>
			<path class="st6" d="M1489.2,530.7c0,0,54-4.7,52.8,45.8c-1.2,50.5-107.5,104.8-107.5,104.8l-18.6-39.6l58.5-57.2
				C1474.3,584.5,1509,558.4,1489.2,530.7z"/>
		</g>
		<g>
			<path class="st13" d="M1496.2,557.3c0,0-91.9,108.2-123.5,94.7c0,0,12.2-14.2,10.9-31.9c-1.3-17.6,74.2-53.6,74.2-53.6
				L1496.2,557.3z"/>
		</g>
		<g id="XMLID_5_">
			<g>
				<path class="st6" d="M1443.5,674.2c68.9-63.5,145.5,23,128.7,91.2c-13,52.4-95.3,131.6-184.5,163.9
					c-7.2-28-32.5-113.4-77.7-137.3C1374.2,727.6,1443.5,674.2,1443.5,674.2z"/>
				<path class="st13" d="M938.4,830.7c-0.5,0.4-20.7,14.4-21.8,9.9c-1.7-13.6,13.4-89.5,104.3-72.2
					c90.9,17.3,258.6,55.4,258.6,55.4c9.8-10.8,20-21.4,30.4-31.8c45.2,23.9,70.5,109.3,77.7,137.3c-26.8,9.7-54.2,15.1-80.5,14.4
					c-114.1-3.3-252.3-111.9-252.3-111.9c-58.7,30.1-87.3-0.5-87.3-0.5s-26.8,21.3-29.6,14.3C935.3,838.6,938.3,831,938.4,830.7z"/>
			</g>
		</g>
		<g>
			
				<ellipse transform="matrix(0.957 -0.2901 0.2901 0.957 -67.6906 396.508)" class="st23" cx="1303.4" cy="426.5" rx="9.1" ry="15.1"/>
		</g>
		<g>
			
				<ellipse transform="matrix(0.957 -0.2901 0.2901 0.957 -76.0702 378.7799)" class="st23" cx="1239.4" cy="445.9" rx="9.1" ry="15.1"/>
		</g>
		<g>
			<path class="st23" d="M1306.3,525c-1.2,0-2.3-0.1-3.4-0.2c-2.2-0.3-3.8-2.3-3.5-4.5s2.3-3.8,4.5-3.5c6.3,0.8,16.3-1.6,23.4-8.7
				c6.2-6.3,8.7-14.7,7.3-25c-0.3-2.2,1.3-4.2,3.4-4.5c2.2-0.3,4.2,1.3,4.5,3.4c2.1,16.1-4,26.1-9.6,31.6
				C1325.1,521.7,1314.5,525,1306.3,525z"/>
		</g>
		<g>
			<path class="st23" d="M1478.7,396.4C1478.7,396.4,1478.7,396.4,1478.7,396.4c-2.3,0-4-1.9-4-4.1c0.7-42.2-8.2-72.2-26.5-89.2
				c-16.8-15.6-35.7-14.1-35.9-14.1c-1.6,0.1-3.1-0.7-3.9-2.1c-12.1-22.5-48.7-35.6-89-31.7c-48,4.6-83.8,30.4-95.9,69
				c-10.5,33.6-23.1,46.2-31.3,50.8c20.3,13.3,45.4,16.7,71.5,9.5c36.3-10,69.1-39.2,81.7-72.6c0.8-2.1,3.1-3.1,5.2-2.3
				c2.1,0.8,3.1,3.1,2.3,5.2c-13.4,35.7-48.4,66.8-87,77.5c-31.3,8.6-61.4,3.2-84.6-15.3c-1.4-1.1-2-2.9-1.4-4.5
				c0.6-1.6,2.1-2.7,3.8-2.6c1.1-0.1,18.1-2.9,32.2-48c7-22.2,20.7-40.3,40.8-53.6c17.4-11.5,38.9-18.8,62-21
				c20.4-1.9,41,0.3,58.1,6.3c17.3,6.1,30.2,15.5,37.4,27.4c6.5,0,23.7,1.7,39.4,16.3c20,18.6,29.8,50.6,29,95.2
				C1482.7,394.7,1480.9,396.4,1478.7,396.4z"/>
		</g>
		<g>
			<path class="st23" d="M1457.8,406.7c-13.1,0-19.3-12-25-22.9c-7-13.5-13.6-26.3-32-24.9c-23.6,1.8-38.7-7.3-47.2-15.2
				c-9.2-8.6-12.8-17.7-13-18.1c-0.8-2.1,0.2-4.4,2.3-5.2c2.1-0.8,4.4,0.2,5.2,2.3l0,0c0.5,1.3,12.8,31.2,52.1,28.2
				c23.7-1.8,32.6,15.4,39.7,29.2c8.1,15.7,12.7,22.9,28.2,15.7c2-0.9,4.4-0.1,5.3,1.9s0.1,4.4-1.9,5.3
				C1466.3,405.7,1461.7,406.7,1457.8,406.7z"/>
		</g>
		<g>
			<path class="st23" d="M1261.2,340.4c-1.1,0-2.1-0.4-2.9-1.3c-1.5-1.6-1.4-4.2,0.2-5.7c3.1-2.9,77.2-70.8,115.8-32.2
				c1.6,1.6,1.6,4.1,0,5.7c-1.6,1.6-4.1,1.6-5.7,0c-33.2-33.2-104,31.7-104.7,32.4C1263.1,340.1,1262.1,340.4,1261.2,340.4z"/>
		</g>
		<g>
			<path class="st23" d="M1396,297.5c-1,0-2-0.4-2.8-1.2c-34.1-34.1-75.7-24.4-97.5-15.6c-2,0.8-4.4-0.2-5.2-2.2
				c-0.8-2,0.2-4.4,2.2-5.2c23.6-9.5,68.8-19.9,106.2,17.4c1.6,1.6,1.6,4.1,0,5.7C1398,297.1,1397,297.5,1396,297.5z"/>
		</g>
		<g>
			<path class="st23" d="M1342.5,595.8c-35.3,0-67.2-14.4-89.7-41.6c-18-21.7-31.4-49.2-38.7-79.6c-4.9-20.1-4.8-40.4-4.6-60.1
				c0-7.2,0.1-14.6-0.1-22c-0.1-2.2,1.7-4,3.9-4.1c0,0,0.1,0,0.1,0c2.2,0,3.9,1.7,4,3.9c0.2,7.5,0.2,15,0.1,22.3
				c-0.1,20-0.2,39,4.4,58.2c7,29.2,19.9,55.6,37.1,76.3c29,35,74.8,47.2,122.5,32.8c42.2-12.8,69.8-43.1,75.9-55
				c1-2,3.4-2.7,5.4-1.7c2,1,2.7,3.4,1.7,5.4c-6.9,13.3-35.6,45.3-80.7,59C1369.7,593.7,1355.9,595.8,1342.5,595.8z"/>
		</g>
		<g>
			<path class="st23" d="M1478.7,460.7c-0.1,0-0.1,0-0.2,0c-2.2-0.1-3.9-2-3.8-4.2c1.2-24.8,7.8-40.6,19.6-47.1
				c14.3-7.8,30.1,1.3,30.8,1.7c1.9,1.1,2.6,3.6,1.5,5.5c-1.1,1.9-3.6,2.6-5.5,1.5c-0.1-0.1-12.7-7.2-23-1.5
				c-9.1,5-14.4,18.9-15.4,40.4C1482.6,459,1480.8,460.7,1478.7,460.7z"/>
		</g>
		<g>
			<path class="st23" d="M1503.9,460.7c-0.3,0-0.7,0-1-0.1c-2.1-0.6-3.4-2.8-2.8-4.9c0-0.1,2.5-9.8-2.3-16
				c-2.8-3.6-7.7-5.4-14.6-5.4c-2.2,0-4-1.8-4-4s1.8-4,4-4c9.6,0,16.6,2.9,21,8.5c7.1,9.3,3.8,22.3,3.6,22.9
				C1507.3,459.5,1505.6,460.7,1503.9,460.7z"/>
		</g>
		<g>
			<path class="st23" d="M1404.3,705.8c-11,0-19.1-3.2-23.4-9.4c-5.1-7.3-4.6-18.1,1.4-32.2c6.9-16.2,30.7-33.9,55.8-52.6
				c27.1-20.2,55-41,62.8-60.4c0.8-2.1,3.2-3,5.2-2.2c2,0.8,3,3.2,2.2,5.2c-8.6,21.4-37.5,43-65.5,63.8
				c-24.2,18.1-47.1,35.1-53.2,49.4c-4.8,11.2-5.6,19.7-2.2,24.5c4.1,5.8,14,6.2,19.5,5.9c4.8-0.2,30.3-15.9,63.9-43.4
				c34.5-28.3,58-53.2,63.1-66.7c5.6-14.9,2.2-31.7-8.5-42.7c-9.4-9.6-21.9-12.6-34.5-8.3c-2.1,0.7-4.4-0.4-5.1-2.5
				c-0.7-2.1,0.4-4.4,2.5-5.1c15.4-5.3,31.4-1.4,42.8,10.3c12.9,13.2,16.9,33.3,10.3,51.1c-7.9,21.3-48.4,56.1-65.5,70.1
				c-21.8,17.9-58.1,44.7-68.5,45.2C1406.3,705.8,1405.3,705.8,1404.3,705.8z"/>
		</g>
		<g>
			<path class="st23" d="M1352.2,682.3c-1.6,0-3.2-1-3.8-2.6c-0.2-0.5-4.8-13.6-3.8-29.7c1-15.1,7.2-35.8,31.7-48.5
				c2-1,4.4-0.2,5.4,1.7c1,2,0.2,4.4-1.7,5.4c-16.9,8.7-26.1,22.7-27.3,41.6c-1,14.5,3.3,26.6,3.3,26.7c0.7,2.1-0.3,4.4-2.4,5.1
				C1353.1,682.2,1352.6,682.3,1352.2,682.3z"/>
		</g>
		<g>
			<path class="st23" d="M1334.5,768.5c-1.7,0-3.2-1-3.8-2.7c-16.6-47.4,36.4-119.8,38.7-122.9c0.8-1.1,2.2-1.7,3.6-1.6
				c1.4,0.1,2.6,1,3.2,2.3c0.4,0.9,4.8,8.7,18.1,4.5c2.1-0.7,4.4,0.5,5,2.6c0.7,2.1-0.5,4.4-2.6,5c-11.6,3.6-19.4,0.3-23.9-3.8
				c-11,16.2-47.6,73.9-34.5,111.1c0.7,2.1-0.4,4.4-2.5,5.1C1335.4,768.5,1335,768.5,1334.5,768.5z"/>
		</g>
		<g>
			<path class="st23" d="M1313.4,947.8c-2.2,0-4.3-0.1-6.5-0.2c-52.1-2.9-110.4-27.6-150.2-47.7c-42.9-21.8-74-43.2-74.4-43.4
				l-28-20.1c-55.7,25.2-80.7,7.2-87.9-0.2l-26.8,12.9c-1.3,0.6-2.7,0.5-3.9-0.2c-1.2-0.8-1.9-2.1-1.8-3.5l0.3-8.4l-15.9,7.2
				c-1.3,0.6-2.8,0.4-4-0.4c-1.2-0.8-1.8-2.2-1.7-3.6c2.6-30,17.8-48.8,30.1-59.2c13.3-11.3,25.9-15.6,26.4-15.7
				c0.4-0.1,0.8-0.2,1.1-0.2c73.2-1.9,282.7,48.2,308,54.3l60.4-60.7c0,0,0.1-0.1,0.1-0.1c20.3-19.3,65.3-59.3,65.8-59.7
				c1.7-1.5,4.2-1.3,5.6,0.3c1.5,1.7,1.3,4.2-0.3,5.6c-0.5,0.4-45.3,40.3-65.5,59.5l-62,62.3c-1,1-2.4,1.4-3.8,1.1
				c-2.3-0.6-231.5-56.2-307.4-54.6c-2.4,0.9-12.8,5.1-23.4,14.2c-14.3,12.3-23.1,28-26.2,46.7l15.3-6.9c1.3-0.6,2.7-0.5,3.9,0.3
				c1.1,0.8,1.8,2.1,1.8,3.5l-0.3,8.2l23.6-11.4c1.8-0.9,3.9-0.3,5,1.3c0.2,0.3,5.1,7,17.4,10.4c11.7,3.2,32.4,3.9,64.9-11.2
				c1.3-0.6,2.9-0.5,4,0.4l29.8,21.4c1.2,0.8,123.1,84.2,220.3,89.7c96.8,5.4,248.4-126.1,249.9-127.5c1.7-1.5,4.2-1.3,5.6,0.4
				c1.5,1.7,1.3,4.2-0.4,5.6c-0.4,0.3-39.1,34.1-89.5,66.7C1408.4,926.6,1354.7,947.8,1313.4,947.8z"/>
		</g>
		<g>
			<path class="st23" d="M1383.6,931.9c-1.8,0-3.5-1.3-3.9-3.2c-0.2-1.1-25.1-112.7-75.5-127.1c-2.1-0.6-3.4-2.8-2.8-4.9
				c0.6-2.1,2.8-3.4,4.9-2.8c55,15.7,80,128.3,81.1,133.1c0.5,2.2-0.9,4.3-3.1,4.8C1384.1,931.9,1383.9,931.9,1383.6,931.9z"/>
		</g>
		<g>
			<path class="st23" d="M1570.2,776.1C1570.1,776.1,1570.1,776.1,1570.2,776.1c-2.3,0-4-1.9-4-4.1c0-0.9,0.5-77.7-51.4-97.9
				c-2.1-0.8-3.1-3.1-2.3-5.2s3.1-3.1,5.2-2.3c23.8,9.2,41.1,30.5,50,61.5c6.7,23.1,6.5,43.1,6.4,44
				C1574.1,774.3,1572.3,776.1,1570.2,776.1z"/>
		</g>
		<g>
			<path class="st23" d="M1227.3,494.9c-7.7,0-15.5-3-22.6-8.8c-9.1-7.4-15.8-18.6-19.1-31.5c-3.3-12.9-2.6-25.9,1.8-36.8
				c4.5-11.1,12.5-18.6,22.4-21.1c9.9-2.5,20.5,0.3,29.7,7.9c9.1,7.4,15.8,18.6,19.1,31.5c3.3,12.9,2.6,25.9-1.8,36.8
				c-4.5,11.1-12.5,18.6-22.4,21.1C1232.1,494.6,1229.7,494.9,1227.3,494.9z M1217,400.8c-2,0-4,0.2-5.9,0.7
				c-8.3,2.1-15.1,8.6-19,18.2c-4,9.9-4.6,21.8-1.6,33.7c3,11.8,9.2,22.1,17.4,28.9c8,6.6,17,9.1,25.3,7c8.3-2.1,15.1-8.6,19-18.2
				c4-9.9,4.6-21.8,1.6-33.7v0c-3-11.8-9.2-22.1-17.4-28.9C1230.3,403.4,1223.5,400.8,1217,400.8z"/>
		</g>
		<g>
			<path class="st23" d="M1318.7,470.8c-8.5,0-17-2.6-24.5-7.8c-10.5-7.1-18.1-18.2-21.4-31.1c-6.8-26.8,7.3-53.6,31.4-59.7
				c11.7-3,24-0.6,34.6,6.5c10.5,7.1,18.1,18.2,21.4,31.1c6.8,26.8-7.3,53.6-31.4,59.7C1325.4,470.4,1322.1,470.8,1318.7,470.8z
				 M1314.2,376c-3,0-5.9,0.4-8.8,1.1c-21.4,5.4-33.9,29.5-27.7,53.6c3,11.8,9.8,21.8,19.3,28.2c9.4,6.4,20.3,8.4,30.6,5.8
				c21.4-5.4,33.8-29.5,27.7-53.6c-3-11.8-9.8-21.8-19.3-28.2C1329.2,378.3,1321.7,376,1314.2,376z"/>
		</g>
		<g>
			<path class="st23" d="M1255.5,436.6c-1.4,0-2.5-1.1-2.5-2.5c-0.1-8.9,4.7-12.9,9.2-13.8c5.3-1,12.3,2.1,15.3,10
				c0.5,1.3-0.1,2.7-1.4,3.2c-1.3,0.5-2.7-0.1-3.2-1.4c-2.1-5.4-6.5-7.5-9.7-6.9c-3.3,0.6-5.2,3.9-5.1,8.8
				C1258.1,435.5,1257,436.6,1255.5,436.6C1255.6,436.6,1255.5,436.6,1255.5,436.6z"/>
		</g>
		<g>
			<path class="st23" d="M1358.4,416.4c-1.3,0-2.4-1-2.5-2.3c-0.1-1.4,0.9-2.6,2.2-2.7l103.9-10.4c1.4-0.1,2.6,0.9,2.7,2.2
				c0.1,1.4-0.9,2.6-2.2,2.7l-103.9,10.4C1358.6,416.4,1358.5,416.4,1358.4,416.4z"/>
		</g>
		<g>
			<path class="st23" d="M1498,568.3c-1.8,0-3.4-1.2-3.9-3l-19-72.2c-0.4-1.4,0-2.9,1.1-3.9c1-1,2.6-1.4,3.9-0.9
				c11.4,3.5,22.1,1.8,31.8-5.1c14.6-10.4,25.3-32.3,26-53.2c0.7-20.4-12.1-35.9-32.5-39.3c-9.5-1.6-18.6,0.2-24.4,4.9
				c-4.4,3.6-6.8,8.6-7.1,15c-0.1,2.2-2,3.9-4.2,3.8c-2.2-0.1-3.9-2-3.8-4.2c0.4-8.6,3.9-15.8,10.1-20.8c7.6-6.1,18.8-8.5,30.7-6.5
				c24.3,4.1,40,23.1,39.2,47.5c-0.8,23.2-12.9,47.7-29.4,59.5c-9.7,6.9-20.7,9.6-32,7.8l17.3,65.8c0.6,2.1-0.7,4.3-2.8,4.9
				C1498.7,568.2,1498.3,568.3,1498,568.3z"/>
		</g>
		<g>
			<path class="st23" d="M1249.9,507.7c-6.5,0-8.4-1-9.3-3.6c-0.3-0.8-0.8-3.7,2.9-5.7c3.9-3.3,10.1-31.4,13.7-55.5
				c0.3-2.2,2.4-3.7,4.5-3.4c2.2,0.3,3.7,2.3,3.4,4.5c0,0.1-2,13.9-5,27.9c-3.1,14.9-5.8,23.1-8.1,27.8c5.8-0.2,14.8-0.9,22.7-1.8
				c2.2-0.2,4.2,1.3,4.4,3.5c0.2,2.2-1.3,4.2-3.5,4.4c-0.1,0-7.7,0.8-15.3,1.4C1256,507.5,1252.6,507.7,1249.9,507.7z M1243.6,498.3
				C1243.6,498.3,1243.6,498.3,1243.6,498.3C1243.6,498.3,1243.6,498.3,1243.6,498.3z"/>
		</g>
		<g>
			<path class="st23" d="M1372.7,649.4c-0.7,0-1.5-0.2-2.1-0.6c-1.9-1.2-2.4-3.7-1.2-5.5c15.1-23.8,2.5-53.7,2.4-54
				c-0.9-2,0.1-4.4,2.1-5.3c2-0.9,4.4,0,5.3,2.1c0.6,1.4,14.5,34-3,61.4C1375.3,648.7,1374,649.4,1372.7,649.4z"/>
		</g>
		<g>
			<g>
				<g>
					<path class="st29" d="M931.6,491.4c-4,0-7.8-1.9-10.1-5.1l-22.5-30.8c-4.1-5.6-2.8-13.4,2.7-17.5s13.4-2.8,17.5,2.7l12.4,17
						l44.4-61c4.1-5.6,11.9-6.8,17.5-2.7c5.6,4.1,6.8,11.9,2.7,17.5l-54.5,74.9C939.4,489.5,935.6,491.4,931.6,491.4z"/>
				</g>
			</g>
			<g>
				<g>
					<path class="st23" d="M935.6,497.9c-4.8,0-9.3-2.3-12.1-6.2l-22.5-30.8c-4.9-6.7-3.4-16.1,3.3-21c6.7-4.9,16.1-3.4,21,3.3
						l10.3,14.2l42.4-58.2c2.4-3.2,5.8-5.4,9.8-6c4-0.6,7.9,0.3,11.2,2.7c6.7,4.9,8.2,14.3,3.3,21l-54.5,74.9
						C944.9,495.6,940.4,497.9,935.6,497.9z M913.2,442.1c-2,0-4.1,0.6-5.9,1.9c-4.5,3.2-5.4,9.5-2.2,14l22.5,30.8
						c1.9,2.6,4.9,4.1,8.1,4.1s6.2-1.5,8.1-4.1l54.5-74.9c3.2-4.5,2.3-10.7-2.2-14c-2.2-1.6-4.8-2.2-7.4-1.8c-2.6,0.4-5,1.8-6.5,4
						l-46.5,63.8l-14.4-19.7C919.3,443.5,916.3,442.1,913.2,442.1z"/>
				</g>
			</g>
		</g>
		<path class="st23" d="M1338.1,1054.9c6.3-47,37.9-120.5,38.2-121.3c0.9-2-0.1-4.4-2.1-5.3c-2-0.9-4.4,0.1-5.3,2.1
			c-1.3,3.1-32.5,75.8-38.9,123.9c0,0.2,0,0.3,0,0.5H1338.1z"/>
		<path class="st23" d="M1524.1,610.8c0.5,0.3,48.8,27.9,88.7,95.9c37,63,73.9,174.5,39.7,347.4c-0.1,0.3-0.1,0.5-0.1,0.8h8.1
			c15.2-77.1,17.7-148.7,7.6-212.8c-8.1-51.6-24.4-98.5-48.4-139.5c-41-69.9-89.6-97.7-91.7-98.8c-1.9-1.1-4.4-0.4-5.4,1.5
			C1521.4,607.3,1522.1,609.7,1524.1,610.8z"/>
	</g>
</g>
</svg>
