<svg width="30" height="30" viewBox="0 0 30 30" fill="none" xmlns="http://www.w3.org/2000/svg">
<path fill-rule="evenodd" clip-rule="evenodd" d="M8.81291 3.81282C10.4539 2.17187 12.6795 1.25 15.0001 1.25C17.3207 1.25 19.5463 2.17187 21.1873 3.81282C22.8282 5.45376 23.7501 7.67936 23.7501 10C23.7501 14.1908 24.6464 16.7933 25.4725 18.3077C25.8872 19.068 26.2911 19.5669 26.5716 19.863C26.7122 20.0114 26.8227 20.1098 26.8892 20.1652C26.9225 20.1929 26.9448 20.21 26.9544 20.2171C26.9559 20.2182 26.9571 20.2191 26.958 20.2198C27.4061 20.5276 27.6044 21.0906 27.4465 21.6122C27.2868 22.1394 26.8009 22.5 26.2501 22.5H3.7501C3.19926 22.5 2.71336 22.1394 2.55373 21.6122C2.3958 21.0906 2.5941 20.5276 3.04221 20.2198C3.04309 20.2191 3.04428 20.2182 3.04578 20.2171C3.05541 20.21 3.07772 20.1929 3.111 20.1652C3.17752 20.1098 3.288 20.0114 3.42859 19.863C3.70913 19.5669 4.11298 19.068 4.52773 18.3077C5.35376 16.7933 6.2501 14.1908 6.2501 10C6.2501 7.67936 7.17197 5.45376 8.81291 3.81282ZM3.05484 20.2112C3.05494 20.2111 3.05504 20.2111 3.05514 20.211C3.05513 20.211 3.05513 20.211 3.05512 20.211L3.05484 20.2112ZM6.43675 20H23.5634C23.4683 19.8442 23.3729 19.6792 23.2777 19.5048C22.2288 17.5817 21.2501 14.5592 21.2501 10C21.2501 8.3424 20.5916 6.75268 19.4195 5.58058C18.2474 4.40848 16.6577 3.75 15.0001 3.75C13.3425 3.75 11.7528 4.40848 10.5807 5.58058C9.40858 6.75269 8.7501 8.3424 8.7501 10C8.7501 14.5592 7.77143 17.5817 6.72247 19.5048C6.62734 19.6792 6.53186 19.8442 6.43675 20Z" fill="white"/>
<path fill-rule="evenodd" clip-rule="evenodd" d="M12.2104 25.1688C12.8076 24.8224 13.5725 25.0257 13.9189 25.6228C14.0287 25.8122 14.1865 25.9695 14.3762 26.0788C14.566 26.1881 14.7811 26.2456 15.0001 26.2456C15.2191 26.2456 15.4342 26.1881 15.624 26.0788C15.8138 25.9695 15.9715 25.8122 16.0814 25.6228C16.4278 25.0257 17.1927 24.8224 17.7898 25.1688C18.387 25.5152 18.5903 26.2801 18.2439 26.8772C17.9142 27.4455 17.4411 27.9172 16.8718 28.2451C16.3025 28.573 15.6571 28.7456 15.0001 28.7456C14.3431 28.7456 13.6977 28.573 13.1284 28.2451C12.5592 27.9172 12.086 27.4455 11.7564 26.8772C11.41 26.2801 11.6132 25.5152 12.2104 25.1688Z" fill="white"/>
</svg>
