<svg width="30" height="30" viewBox="0 0 30 30" fill="none" xmlns="http://www.w3.org/2000/svg">
<path fill-rule="evenodd" clip-rule="evenodd" d="M15 3.75C8.7868 3.75 3.75 8.7868 3.75 15C3.75 21.2132 8.7868 26.25 15 26.25C21.2132 26.25 26.25 21.2132 26.25 15C26.25 8.7868 21.2132 3.75 15 3.75ZM1.25 15C1.25 7.40608 7.40608 1.25 15 1.25C22.5939 1.25 28.75 7.40608 28.75 15C28.75 22.5939 22.5939 28.75 15 28.75C7.40608 28.75 1.25 22.5939 1.25 15Z" fill="#1E70F7"/>
<path fill-rule="evenodd" clip-rule="evenodd" d="M15 6.25C15.6904 6.25 16.25 6.80964 16.25 7.5V14.2275L20.559 16.382C21.1765 16.6907 21.4268 17.4415 21.118 18.059C20.8093 18.6765 20.0585 18.9268 19.441 18.618L14.441 16.118C14.0175 15.9063 13.75 15.4735 13.75 15V7.5C13.75 6.80964 14.3096 6.25 15 6.25Z" fill="#1E70F7"/>
</svg>
