<svg width="16" height="16" viewBox="2 0 14 18" fill="none" xmlns="http://www.w3.org/2000/svg">
<g clip-path="url(#clip0_1506_1522)">
<path fill-rule="evenodd" clip-rule="evenodd" d="M1.5 4.71191C1.5 4.2977 1.83579 3.96191 2.25 3.96191H15.75C16.1642 3.96191 16.5 4.2977 16.5 4.71191C16.5 5.12613 16.1642 5.46191 15.75 5.46191H2.25C1.83579 5.46191 1.5 5.12613 1.5 4.71191Z" fill="#EA2A63"/>
<path fill-rule="evenodd" clip-rule="evenodd" d="M7.5 2.46191C7.30109 2.46191 7.11032 2.54093 6.96967 2.68158C6.82902 2.82224 6.75 3.013 6.75 3.21191V3.96191H11.25V3.21191C11.25 3.013 11.171 2.82224 11.0303 2.68158C10.8897 2.54093 10.6989 2.46191 10.5 2.46191H7.5ZM12.75 3.96191V3.21191C12.75 2.61518 12.5129 2.04288 12.091 1.62092C11.669 1.19897 11.0967 0.961914 10.5 0.961914H7.5C6.90326 0.961914 6.33097 1.19897 5.90901 1.62092C5.48705 2.04288 5.25 2.61518 5.25 3.21191V3.96191H3.75C3.33579 3.96191 3 4.2977 3 4.71191V15.2119C3 15.8087 3.23705 16.3809 3.65901 16.8029C4.08097 17.2249 4.65326 17.4619 5.25 17.4619H12.75C13.3467 17.4619 13.919 17.2249 14.341 16.8029C14.7629 16.3809 15 15.8087 15 15.2119V4.71191C15 4.2977 14.6642 3.96191 14.25 3.96191H12.75ZM4.5 5.46191V15.2119C4.5 15.4108 4.57902 15.6016 4.71967 15.7422C4.86032 15.8829 5.05109 15.9619 5.25 15.9619H12.75C12.9489 15.9619 13.1397 15.8829 13.2803 15.7422C13.421 15.6016 13.5 15.4108 13.5 15.2119V5.46191H4.5Z" fill="#EA2A63"/>
<path fill-rule="evenodd" clip-rule="evenodd" d="M7.5 7.71191C7.91421 7.71191 8.25 8.0477 8.25 8.46191V12.9619C8.25 13.3761 7.91421 13.7119 7.5 13.7119C7.08579 13.7119 6.75 13.3761 6.75 12.9619V8.46191C6.75 8.0477 7.08579 7.71191 7.5 7.71191Z" fill="#EA2A63"/>
<path fill-rule="evenodd" clip-rule="evenodd" d="M10.5 7.71191C10.9142 7.71191 11.25 8.0477 11.25 8.46191V12.9619C11.25 13.3761 10.9142 13.7119 10.5 13.7119C10.0858 13.7119 9.75 13.3761 9.75 12.9619V8.46191C9.75 8.0477 10.0858 7.71191 10.5 7.71191Z" fill="#EA2A63"/>
</g>
<defs>
<clipPath id="clip0_1506_1522">
<rect width="24" height="24" fill="white" transform="translate(0 0.211914)"/>
</clipPath>
</defs>
</svg>
