<svg width="32" height="36" viewBox="0 0 33 36" fill="none" xmlns="http://www.w3.org/2000/svg">
<path fill-rule="evenodd" clip-rule="evenodd" d="M5.36874 0.0414C2.41211 0.4338 0.610145 2.99628 0.558874 5.904C0.495497 9.48816 0.56101 13.1422 0.56101 16.7342C0.56101 20.3202 0.56101 23.9062 0.56101 27.4921C0.56101 30.7037 0.300382 33.5261 3.50909 35.3394C4.32694 35.8016 5.15048 35.9554 5.99823 36H8.14093H10.7828C11.5665 35.8924 12.1525 35.5705 12.2262 34.7144C12.2843 34.0409 11.7812 33.3176 11.1114 33.2075C9.18949 32.891 5.29219 33.9084 4.06524 32.1757C3.55574 31.4561 3.40726 31.0756 3.41189 30.1644V5.8356C3.40406 4.2858 4.31412 3.02868 5.84192 2.87856C7.6033 2.7054 19.0446 2.81232 21.7712 2.81232C23.4079 2.81232 24.7609 2.67948 25.6656 4.28868C26.5105 5.7906 25.651 13.2019 26.0922 14.6855C26.5319 16.164 28.7857 16.0553 28.8651 14.134C28.937 12.3959 28.8644 10.4771 28.8644 8.71884C28.8644 5.4756 29.2094 2.64384 26.047 0.73908C25.1647 0.20772 24.3237 0.04356 23.4432 0H21.4233H8.0715H5.81807C5.66105 0.00936 5.51044 0.02268 5.36874 0.0414V0.0414ZM7.16749 19.7579C6.19014 20.0642 5.81344 21.0953 6.44044 21.9694C7.01083 22.7646 8.62231 22.5 9.53166 22.5C10.4357 22.5 16.2884 22.5619 16.6555 22.4604C17.6271 22.1926 17.9216 21.0686 17.3516 20.2187C16.8182 19.4234 15.1391 19.6873 14.2607 19.6873C13.696 19.6873 7.74216 19.5775 7.16749 19.7579V19.7579ZM7.16749 8.50788C5.5788 8.9892 6.00713 11.0956 7.31169 11.245L17.3206 11.25C18.1712 11.25 21.7406 11.3598 22.2885 11.2108C23.7295 10.8191 23.5194 8.60328 22.1137 8.44236L12.1048 8.43732C11.146 8.43732 7.83829 8.30448 7.16749 8.50788V8.50788ZM7.16749 14.1329C5.5788 14.6142 6.00713 16.7206 7.31169 16.87L17.3206 16.875C18.1712 16.875 21.7406 16.9848 22.2885 16.8358C22.8593 16.6806 23.336 15.9991 23.2969 15.4069C23.1762 13.5742 20.8515 14.0623 19.6153 14.0623C17.7891 14.0623 7.75177 13.9558 7.16749 14.1329V14.1329ZM19.198 32.4842L19.9941 29.844L25.1013 24.6722L27.0592 26.6166C26.658 27.0245 22.1208 31.6804 21.8972 31.7682L20.5898 32.1336C20.2441 32.2247 19.5121 32.4781 19.198 32.4842V32.4842ZM27.1091 22.5871C27.5232 22.3045 27.5673 22.09 28.1398 21.9726C29.3451 21.7253 30.4645 23.4648 29.073 24.5513L27.1091 22.5871V22.5871ZM27.6819 19.1952C26.3375 19.4418 25.9619 19.7737 25.0219 20.7245L18.7287 27.0878C17.5549 28.2748 17.6029 28.0004 17.0856 29.6453C16.7427 30.7357 16.4451 31.8449 16.0933 32.9314C15.7618 33.9552 15.2195 35.2361 16.4636 35.8819C17.1461 36.2362 19.1119 35.5158 19.8866 35.2897C23.7925 34.151 22.7567 34.9682 25.3352 32.3615C26.7377 30.9434 28.1398 29.5254 29.5423 28.1074C31.1281 26.5043 32.86 25.2824 32.4776 22.7131C32.1308 20.3839 29.981 18.774 27.6819 19.1952V19.1952Z" fill="#1E70F7"/>
</svg>
