<svg width="46" height="50" viewBox="0 0 46 50" fill="none" xmlns="http://www.w3.org/2000/svg">
<path fill-rule="evenodd" clip-rule="evenodd" d="M7.32454 0.0575C3.17254 0.6025 0.642042 4.1615 0.570042 8.2C0.481042 13.178 0.573043 18.253 0.573043 23.242C0.573043 28.2225 0.573043 33.203 0.573043 38.1835C0.573043 42.644 0.207042 46.564 4.71304 49.0825C5.86154 49.7245 7.01804 49.938 8.20854 50H11.2175H14.9275C16.028 49.8505 16.851 49.4035 16.9545 48.2145C17.036 47.279 16.3295 46.2745 15.389 46.1215C12.69 45.682 7.21704 47.095 5.49404 44.6885C4.77854 43.689 4.57004 43.1605 4.57654 41.895V8.105C4.56554 5.9525 5.84354 4.2065 7.98904 3.998C10.4625 3.7575 26.5295 3.906 30.3585 3.906C32.657 3.906 34.557 3.7215 35.8275 5.9565C37.014 8.0425 35.807 18.336 36.4265 20.3965C37.044 22.45 40.209 22.299 40.3205 19.6305C40.4215 17.2165 40.3195 14.5515 40.3195 12.1095C40.3195 7.605 40.804 3.672 36.363 1.0265C35.124 0.2885 33.943 0.0605 32.7065 0H29.87H11.12H7.95554C7.73504 0.013 7.52354 0.0315 7.32454 0.0575ZM9.85054 27.4415C8.47804 27.867 7.94904 29.299 8.82954 30.513C9.63054 31.6175 11.8935 31.25 13.1705 31.25C14.44 31.25 22.659 31.336 23.1745 31.195C24.539 30.823 24.9525 29.262 24.152 28.0815C23.403 26.977 21.045 27.3435 19.8115 27.3435C19.0185 27.3435 10.6575 27.191 9.85054 27.4415ZM9.85054 11.8165C7.61954 12.485 8.22104 15.4105 10.053 15.618L24.1085 15.625C25.303 15.625 30.3155 15.7775 31.085 15.5705C33.1085 15.0265 32.8135 11.949 30.8395 11.7255L16.784 11.7185C15.4375 11.7185 10.7925 11.534 9.85054 11.8165ZM9.85054 19.629C7.61954 20.2975 8.22104 23.223 10.053 23.4305L24.1085 23.4375C25.303 23.4375 30.3155 23.59 31.085 23.383C31.8865 23.1675 32.556 22.221 32.501 21.3985C32.3315 18.853 29.067 19.531 27.331 19.531C24.7665 19.531 10.671 19.383 9.85054 19.629ZM26.745 45.117L27.863 41.45L35.035 34.267L37.7845 36.9675C37.221 37.534 30.8495 44.0005 30.5355 44.1225L28.6995 44.63C28.214 44.7565 27.186 45.1085 26.745 45.117ZM37.8545 31.371C38.436 30.9785 38.498 30.6805 39.302 30.5175C40.9945 30.174 42.5665 32.59 40.6125 34.099L37.8545 31.371ZM38.659 26.66C36.771 27.0025 36.2435 27.4635 34.9235 28.784L26.086 37.622C24.4375 39.2705 24.505 38.8895 23.7785 41.174C23.297 42.6885 22.879 44.229 22.385 45.738C21.9195 47.16 21.158 48.939 22.905 49.836C23.8635 50.328 26.624 49.3275 27.712 49.0135C33.197 47.432 31.7425 48.567 35.3635 44.9465C37.333 42.977 39.302 41.0075 41.2715 39.038C43.4985 36.8115 45.9305 35.1145 45.3935 31.546C44.9065 28.311 41.8875 26.075 38.659 26.66Z" fill="#1E70F7"/>
</svg>
